# MagicaVoxel @ Ephtracy

# group
g cat

# material
mtllib cat.mtl
usemtl palette

# normals
vn -1 0 0
vn 1 0 0
vn 0 0 1
vn 0 0 -1
vn 0 -1 0
vn 0 1 0

# texcoords
vt 0.826172 0.5
vt 0.947266 0.5
vt 0.951172 0.5
vt 0.955078 0.5
vt 0.958984 0.5
vt 0.962891 0.5
vt 0.978516 0.5
vt 0.982422 0.5
vt 0.986328 0.5

# verts
v -8 4 6
v -8 4 5
v -8 5 6
v -8 5 5
v -8 6 6
v -8 6 5
v -8 7 6
v -8 7 5
v -6 0 6
v -6 0 4
v -6 0 -3
v -6 0 -4
v -6 0 -6
v -6 1 6
v -6 1 4
v -6 1 -3
v -6 1 -4
v -6 1 -6
v -6 4 6
v -6 4 5
v -6 5 6
v -6 5 5
v -6 6 6
v -6 6 5
v -6 6 -5
v -6 6 -6
v -6 7 6
v -6 7 5
v -6 7 1
v -6 7 -0
v -6 7 -1
v -6 7 -2
v -6 7 -3
v -6 7 -4
v -6 11 4
v -6 11 3
v -6 12 6
v -6 12 5
v -6 12 4
v -6 12 3
v -6 12 1
v -6 12 -0
v -6 12 -1
v -6 12 -2
v -6 12 -3
v -6 12 -4
v -6 12 -5
v -6 12 -6
v -6 15 6
v -6 15 5
v -3 4 7
v -3 4 6
v -3 5 7
v -3 5 6
v -3 7 7
v -3 7 6
v -1 8 -6
v -1 8 -8
v -1 9 -6
v -1 9 -8
v -1 10 -6
v -1 10 -7
v -1 10 -8
v -1 11 -7
v -1 11 -8
v -1 12 -7
v -1 12 -8
v -1 13 -6
v -1 13 -7
v -1 13 -8
v -1 14 -6
v -1 14 -7
v -1 14 -8
v 1 4 7
v 1 4 6
v 1 5 7
v 1 5 6
v 3 12 6
v 3 12 5
v 3 15 6
v 3 15 5
v -3 12 6
v -3 12 5
v -3 15 6
v -3 15 5
v -1 4 7
v -1 4 6
v -1 5 7
v -1 5 6
v 1 8 -6
v 1 8 -8
v 1 9 -6
v 1 9 -8
v 1 10 -6
v 1 10 -7
v 1 10 -8
v 1 11 -7
v 1 11 -8
v 1 12 -7
v 1 12 -8
v 1 13 -6
v 1 13 -7
v 1 13 -8
v 1 14 -6
v 1 14 -7
v 1 14 -8
v 3 4 7
v 3 4 6
v 3 5 7
v 3 5 6
v 3 7 7
v 3 7 6
v 6 0 6
v 6 0 4
v 6 0 -3
v 6 0 -4
v 6 0 -6
v 6 1 6
v 6 1 4
v 6 1 -3
v 6 1 -4
v 6 1 -6
v 6 4 6
v 6 4 5
v 6 5 6
v 6 5 5
v 6 6 6
v 6 6 5
v 6 6 -5
v 6 6 -6
v 6 7 6
v 6 7 5
v 6 7 1
v 6 7 -0
v 6 7 -1
v 6 7 -2
v 6 7 -3
v 6 7 -4
v 6 12 6
v 6 12 5
v 6 12 1
v 6 12 -0
v 6 12 -1
v 6 12 -2
v 6 12 -3
v 6 12 -4
v 6 12 -5
v 6 12 -6
v 6 15 6
v 6 15 5
v 8 4 6
v 8 4 5
v 8 5 6
v 8 5 5
v 8 6 6
v 8 6 5
v 8 7 6
v 8 7 5
v -3 4 7
v -3 5 7
v -3 7 7
v -1 4 7
v -1 5 7
v -1 6 7
v -1 7 7
v 1 4 7
v 1 5 7
v 1 6 7
v 1 7 7
v 3 4 7
v 3 5 7
v 3 7 7
v -8 4 6
v -8 5 6
v -8 6 6
v -8 7 6
v -6 0 6
v -6 1 6
v -6 4 6
v -6 5 6
v -6 6 6
v -6 7 6
v -6 12 6
v -6 15 6
v -5 12 6
v -5 14 6
v -4 0 6
v -4 1 6
v -4 7 6
v -4 9 6
v -4 12 6
v -4 14 6
v -3 4 6
v -3 5 6
v -3 7 6
v -3 8 6
v -3 9 6
v -3 10 6
v -3 12 6
v -3 15 6
v -2 0 6
v -2 2 6
v -1 4 6
v -1 5 6
v -1 7 6
v -1 8 6
v -1 9 6
v 1 4 6
v 1 5 6
v 1 7 6
v 1 9 6
v 2 0 6
v 2 2 6
v 2 8 6
v 2 9 6
v 3 4 6
v 3 5 6
v 3 7 6
v 3 9 6
v 3 10 6
v 3 12 6
v 3 15 6
v 4 0 6
v 4 1 6
v 4 7 6
v 4 8 6
v 4 9 6
v 4 12 6
v 4 14 6
v 5 12 6
v 5 14 6
v 6 0 6
v 6 1 6
v 6 4 6
v 6 5 6
v 6 6 6
v 6 7 6
v 6 12 6
v 6 15 6
v 8 4 6
v 8 5 6
v 8 6 6
v 8 7 6
v -1 13 -6
v -1 14 -6
v 1 13 -6
v 1 14 -6
v -1 10 -7
v -1 11 -7
v -1 12 -7
v -1 13 -7
v 1 10 -7
v 1 11 -7
v 1 12 -7
v 1 13 -7
v -8 4 5
v -8 5 5
v -8 6 5
v -8 7 5
v -6 4 5
v -6 5 5
v -6 6 5
v -6 7 5
v -6 12 5
v -6 15 5
v -5 12 5
v -5 14 5
v -4 12 5
v -4 14 5
v -3 12 5
v -3 15 5
v 3 12 5
v 3 15 5
v 4 12 5
v 4 14 5
v 5 12 5
v 5 14 5
v 6 4 5
v 6 5 5
v 6 6 5
v 6 7 5
v 6 12 5
v 6 15 5
v 8 4 5
v 8 5 5
v 8 6 5
v 8 7 5
v -6 0 -6
v -6 1 -6
v -6 6 -6
v -6 12 -6
v -4 0 -6
v -4 1 -6
v -1 8 -6
v -1 9 -6
v -1 10 -6
v 1 8 -6
v 1 9 -6
v 1 10 -6
v 4 0 -6
v 4 1 -6
v 6 0 -6
v 6 1 -6
v 6 6 -6
v 6 12 -6
v -1 8 -8
v -1 9 -8
v -1 10 -8
v -1 11 -8
v -1 12 -8
v -1 13 -8
v -1 14 -8
v 1 8 -8
v 1 9 -8
v 1 10 -8
v 1 11 -8
v 1 12 -8
v 1 13 -8
v 1 14 -8
v -6 0 6
v -4 0 6
v -2 0 6
v 2 0 6
v 4 0 6
v 6 0 6
v -5 0 5
v -4 0 5
v -2 0 5
v 2 0 5
v 4 0 5
v 5 0 5
v -6 0 4
v -5 0 4
v 5 0 4
v 6 0 4
v -6 0 -3
v -5 0 -3
v 5 0 -3
v 6 0 -3
v -6 0 -4
v -5 0 -4
v 5 0 -4
v 6 0 -4
v -5 0 -5
v -4 0 -5
v 4 0 -5
v 5 0 -5
v -6 0 -6
v -4 0 -6
v 4 0 -6
v 6 0 -6
v -3 4 7
v -1 4 7
v 1 4 7
v 3 4 7
v -8 4 6
v -6 4 6
v -3 4 6
v -1 4 6
v 1 4 6
v 3 4 6
v 6 4 6
v 8 4 6
v -8 4 5
v -6 4 5
v 6 4 5
v 8 4 5
v -1 5 7
v 1 5 7
v -1 5 6
v 1 5 6
v -8 6 6
v -6 6 6
v 6 6 6
v 8 6 6
v -8 6 5
v -6 6 5
v 6 6 5
v 8 6 5
v -1 8 -6
v 1 8 -6
v -1 8 -8
v 1 8 -8
v -1 13 -6
v 1 13 -6
v -1 13 -7
v 1 13 -7
v -8 5 6
v -6 5 6
v 6 5 6
v 8 5 6
v -8 5 5
v -6 5 5
v 6 5 5
v 8 5 5
v -3 7 7
v -1 7 7
v 1 7 7
v 3 7 7
v -8 7 6
v -6 7 6
v -3 7 6
v -1 7 6
v 1 7 6
v 3 7 6
v 6 7 6
v 8 7 6
v -8 7 5
v -6 7 5
v 6 7 5
v 8 7 5
v -1 10 -6
v 1 10 -6
v -1 10 -7
v 1 10 -7
v -3 12 6
v 3 12 6
v -6 12 5
v -5 12 5
v -4 12 5
v -3 12 5
v 3 12 5
v 4 12 5
v 5 12 5
v 6 12 5
v -6 12 4
v -2 12 4
v 2 12 4
v 5 12 4
v -6 12 3
v -2 12 3
v 2 12 3
v 5 12 3
v -6 12 1
v 6 12 1
v -6 12 -0
v 6 12 -0
v -6 12 -1
v 6 12 -1
v -6 12 -2
v 6 12 -2
v -6 12 -3
v 6 12 -3
v -6 12 -4
v 6 12 -4
v -6 12 -5
v 6 12 -5
v -6 12 -6
v 6 12 -6
v -1 14 -6
v 1 14 -6
v -1 14 -7
v 1 14 -7
v -1 14 -8
v 1 14 -8
v -6 15 6
v -3 15 6
v 3 15 6
v 6 15 6
v -6 15 5
v -3 15 5
v 3 15 5
v 6 15 5

# faces
f 3/6/1 2/6/1 1/6/1
f 4/6/1 2/6/1 3/6/1
f 7/6/1 6/6/1 5/6/1
f 8/6/1 6/6/1 7/6/1
f 14/6/1 10/6/1 9/6/1
f 15/8/1 11/8/1 10/8/1
f 15/6/1 10/6/1 14/6/1
f 16/3/1 12/3/1 11/3/1
f 16/8/1 11/8/1 15/8/1
f 17/6/1 13/6/1 12/6/1
f 17/3/1 12/3/1 16/3/1
f 18/6/1 13/6/1 17/6/1
f 19/8/1 16/8/1 15/8/1
f 19/8/1 15/8/1 14/8/1
f 19/8/1 18/8/1 17/8/1
f 19/8/1 17/8/1 16/8/1
f 20/8/1 18/8/1 19/8/1
f 22/8/1 18/8/1 20/8/1
f 23/8/1 22/8/1 21/8/1
f 24/8/1 18/8/1 22/8/1
f 24/8/1 22/8/1 23/8/1
f 25/8/1 18/8/1 24/8/1
f 26/8/1 18/8/1 25/8/1
f 28/8/1 25/8/1 24/8/1
f 29/8/1 25/8/1 28/8/1
f 30/8/1 25/8/1 29/8/1
f 31/8/1 25/8/1 30/8/1
f 32/8/1 25/8/1 31/8/1
f 33/8/1 25/8/1 32/8/1
f 34/8/1 25/8/1 33/8/1
f 35/8/1 28/8/1 27/8/1
f 35/8/1 29/8/1 28/8/1
f 36/8/1 29/8/1 35/8/1
f 37/8/1 35/8/1 27/8/1
f 38/8/1 35/8/1 37/8/1
f 39/3/1 36/3/1 35/3/1
f 39/8/1 35/8/1 38/8/1
f 40/8/1 29/8/1 36/8/1
f 40/3/1 36/3/1 39/3/1
f 41/9/1 30/9/1 29/9/1
f 41/8/1 29/8/1 40/8/1
f 42/8/1 31/8/1 30/8/1
f 42/9/1 30/9/1 41/9/1
f 43/9/1 32/9/1 31/9/1
f 43/8/1 31/8/1 42/8/1
f 44/8/1 33/8/1 32/8/1
f 44/9/1 32/9/1 43/9/1
f 45/9/1 34/9/1 33/9/1
f 45/8/1 33/8/1 44/8/1
f 46/8/1 25/8/1 34/8/1
f 46/9/1 34/9/1 45/9/1
f 47/3/1 26/3/1 25/3/1
f 47/8/1 25/8/1 46/8/1
f 48/3/1 26/3/1 47/3/1
f 49/4/1 38/4/1 37/4/1
f 50/4/1 38/4/1 49/4/1
f 53/2/1 52/2/1 51/2/1
f 54/2/1 52/2/1 53/2/1
f 55/7/1 54/7/1 53/7/1
f 56/7/1 54/7/1 55/7/1
f 59/2/1 58/2/1 57/2/1
f 60/2/1 58/2/1 59/2/1
f 61/3/1 60/3/1 59/3/1
f 62/3/1 60/3/1 61/3/1
f 63/3/1 60/3/1 62/3/1
f 64/2/1 63/2/1 62/2/1
f 65/2/1 63/2/1 64/2/1
f 66/3/1 65/3/1 64/3/1
f 67/3/1 65/3/1 66/3/1
f 69/2/1 67/2/1 66/2/1
f 70/2/1 67/2/1 69/2/1
f 71/2/1 69/2/1 68/2/1
f 72/3/1 70/3/1 69/3/1
f 72/2/1 69/2/1 71/2/1
f 73/3/1 70/3/1 72/3/1
f 76/2/1 75/2/1 74/2/1
f 77/2/1 75/2/1 76/2/1
f 80/4/1 79/4/1 78/4/1
f 81/4/1 79/4/1 80/4/1
f 82/4/2 83/4/2 84/4/2
f 84/4/2 83/4/2 85/4/2
f 86/2/2 87/2/2 88/2/2
f 88/2/2 87/2/2 89/2/2
f 90/2/2 91/2/2 92/2/2
f 92/2/2 91/2/2 93/2/2
f 92/3/2 93/3/2 94/3/2
f 94/3/2 93/3/2 95/3/2
f 95/3/2 93/3/2 96/3/2
f 95/2/2 96/2/2 97/2/2
f 97/2/2 96/2/2 98/2/2
f 97/3/2 98/3/2 99/3/2
f 99/3/2 98/3/2 100/3/2
f 99/2/2 100/2/2 102/2/2
f 102/2/2 100/2/2 103/2/2
f 101/2/2 102/2/2 104/2/2
f 102/3/2 103/3/2 105/3/2
f 104/2/2 102/2/2 105/2/2
f 105/3/2 103/3/2 106/3/2
f 107/2/2 108/2/2 109/2/2
f 109/2/2 108/2/2 110/2/2
f 109/7/2 110/7/2 111/7/2
f 111/7/2 110/7/2 112/7/2
f 113/6/2 114/6/2 118/6/2
f 114/8/2 115/8/2 119/8/2
f 118/6/2 114/6/2 119/6/2
f 115/3/2 116/3/2 120/3/2
f 119/8/2 115/8/2 120/8/2
f 116/6/2 117/6/2 121/6/2
f 120/3/2 116/3/2 121/3/2
f 121/6/2 117/6/2 122/6/2
f 119/8/2 120/8/2 123/8/2
f 118/8/2 119/8/2 123/8/2
f 121/8/2 122/8/2 123/8/2
f 120/8/2 121/8/2 123/8/2
f 123/8/2 122/8/2 124/8/2
f 124/8/2 122/8/2 126/8/2
f 125/8/2 126/8/2 127/8/2
f 126/8/2 122/8/2 128/8/2
f 127/8/2 126/8/2 128/8/2
f 128/8/2 122/8/2 129/8/2
f 129/8/2 122/8/2 130/8/2
f 128/8/2 129/8/2 132/8/2
f 132/8/2 129/8/2 133/8/2
f 133/8/2 129/8/2 134/8/2
f 134/8/2 129/8/2 135/8/2
f 135/8/2 129/8/2 136/8/2
f 136/8/2 129/8/2 137/8/2
f 137/8/2 129/8/2 138/8/2
f 131/8/2 132/8/2 139/8/2
f 132/8/2 133/8/2 139/8/2
f 139/8/2 133/8/2 140/8/2
f 133/9/2 134/9/2 141/9/2
f 140/8/2 133/8/2 141/8/2
f 134/8/2 135/8/2 142/8/2
f 141/9/2 134/9/2 142/9/2
f 135/9/2 136/9/2 143/9/2
f 142/8/2 135/8/2 143/8/2
f 136/8/2 137/8/2 144/8/2
f 143/9/2 136/9/2 144/9/2
f 137/9/2 138/9/2 145/9/2
f 144/8/2 137/8/2 145/8/2
f 138/8/2 129/8/2 146/8/2
f 145/9/2 138/9/2 146/9/2
f 129/3/2 130/3/2 147/3/2
f 146/8/2 129/8/2 147/8/2
f 147/3/2 130/3/2 148/3/2
f 139/4/2 140/4/2 149/4/2
f 149/4/2 140/4/2 150/4/2
f 151/6/2 152/6/2 153/6/2
f 153/6/2 152/6/2 154/6/2
f 155/6/2 156/6/2 157/6/2
f 157/6/2 156/6/2 158/6/2
f 162/2/3 160/2/3 159/2/3
f 163/7/3 161/7/3 160/7/3
f 163/2/3 160/2/3 162/2/3
f 164/7/3 161/7/3 163/7/3
f 165/7/3 161/7/3 164/7/3
f 167/7/3 164/7/3 163/7/3
f 168/1/3 165/1/3 164/1/3
f 168/7/3 164/7/3 167/7/3
f 169/1/3 165/1/3 168/1/3
f 170/2/3 167/2/3 166/2/3
f 171/7/3 168/7/3 167/7/3
f 171/2/3 167/2/3 170/2/3
f 171/7/3 169/7/3 168/7/3
f 172/7/3 169/7/3 171/7/3
f 179/6/3 174/6/3 173/6/3
f 180/6/3 174/6/3 179/6/3
f 181/6/3 176/6/3 175/6/3
f 182/6/3 176/6/3 181/6/3
f 185/8/3 180/8/3 179/8/3
f 185/4/3 184/4/3 183/4/3
f 185/8/3 183/8/3 182/8/3
f 185/8/3 182/8/3 181/8/3
f 185/8/3 181/8/3 180/8/3
f 185/8/3 179/8/3 178/8/3
f 186/4/3 184/4/3 185/4/3
f 187/6/3 178/6/3 177/6/3
f 188/8/3 185/8/3 178/8/3
f 188/6/3 178/6/3 187/6/3
f 189/8/3 185/8/3 188/8/3
f 190/8/3 185/8/3 189/8/3
f 191/5/3 186/5/3 185/5/3
f 191/8/3 185/8/3 190/8/3
f 192/4/3 184/4/3 186/4/3
f 192/5/3 186/5/3 191/5/3
f 193/8/3 188/8/3 187/8/3
f 193/8/3 189/8/3 188/8/3
f 194/8/3 189/8/3 193/8/3
f 195/2/3 190/2/3 189/2/3
f 195/8/3 189/8/3 194/8/3
f 196/2/3 190/2/3 195/2/3
f 197/8/3 191/8/3 190/8/3
f 197/2/3 190/2/3 196/2/3
f 198/8/3 191/8/3 197/8/3
f 199/4/3 192/4/3 191/4/3
f 199/8/3 191/8/3 198/8/3
f 200/4/3 184/4/3 192/4/3
f 200/4/3 192/4/3 199/4/3
f 201/8/3 193/8/3 187/8/3
f 202/8/3 193/8/3 201/8/3
f 203/8/3 193/8/3 202/8/3
f 205/2/3 196/2/3 195/2/3
f 206/6/3 197/6/3 196/6/3
f 206/2/3 196/2/3 205/2/3
f 207/3/3 198/3/3 197/3/3
f 207/6/3 197/6/3 206/6/3
f 208/8/3 204/8/3 203/8/3
f 208/8/3 203/8/3 202/8/3
f 209/8/3 204/8/3 208/8/3
f 210/3/3 206/3/3 205/3/3
f 210/3/3 207/3/3 206/3/3
f 211/3/3 198/3/3 207/3/3
f 211/3/3 207/3/3 210/3/3
f 212/5/3 202/5/3 201/5/3
f 213/8/3 208/8/3 202/8/3
f 213/5/3 202/5/3 212/5/3
f 214/2/3 211/2/3 210/2/3
f 215/3/3 198/3/3 211/3/3
f 215/2/3 211/2/3 214/2/3
f 216/8/3 208/8/3 213/8/3
f 216/8/3 213/8/3 212/8/3
f 218/2/3 214/2/3 210/2/3
f 219/3/3 198/3/3 215/3/3
f 219/6/3 215/6/3 214/6/3
f 220/8/3 199/8/3 198/8/3
f 220/3/3 198/3/3 219/3/3
f 221/8/3 199/8/3 220/8/3
f 223/8/3 217/8/3 216/8/3
f 223/8/3 218/8/3 217/8/3
f 223/8/3 216/8/3 212/8/3
f 224/8/3 218/8/3 223/8/3
f 225/2/3 214/2/3 218/2/3
f 225/8/3 218/8/3 224/8/3
f 226/6/3 219/6/3 214/6/3
f 226/2/3 214/2/3 225/2/3
f 227/8/3 221/8/3 220/8/3
f 227/6/3 219/6/3 226/6/3
f 227/8/3 220/8/3 219/8/3
f 228/4/3 222/4/3 221/4/3
f 228/8/3 221/8/3 227/8/3
f 229/4/3 222/4/3 228/4/3
f 230/8/3 225/8/3 224/8/3
f 230/8/3 227/8/3 226/8/3
f 230/5/3 229/5/3 228/5/3
f 230/8/3 228/8/3 227/8/3
f 230/8/3 226/8/3 225/8/3
f 231/4/3 222/4/3 229/4/3
f 231/5/3 229/5/3 230/5/3
f 232/6/3 224/6/3 223/6/3
f 233/8/3 230/8/3 224/8/3
f 233/6/3 224/6/3 232/6/3
f 234/8/3 230/8/3 233/8/3
f 235/8/3 230/8/3 234/8/3
f 236/8/3 230/8/3 235/8/3
f 237/8/3 230/8/3 236/8/3
f 238/4/3 231/4/3 230/4/3
f 238/8/3 230/8/3 237/8/3
f 239/4/3 222/4/3 231/4/3
f 239/4/3 231/4/3 238/4/3
f 240/6/3 235/6/3 234/6/3
f 241/6/3 235/6/3 240/6/3
f 242/6/3 237/6/3 236/6/3
f 243/6/3 237/6/3 242/6/3
f 246/2/3 245/2/3 244/2/3
f 247/2/3 245/2/3 246/2/3
f 252/2/3 249/2/3 248/2/3
f 253/3/3 250/3/3 249/3/3
f 253/2/3 249/2/3 252/2/3
f 254/2/3 251/2/3 250/2/3
f 254/3/3 250/3/3 253/3/3
f 255/2/3 251/2/3 254/2/3
f 256/6/4 257/6/4 260/6/4
f 260/6/4 257/6/4 261/6/4
f 258/6/4 259/6/4 262/6/4
f 262/6/4 259/6/4 263/6/4
f 264/4/4 265/4/4 266/4/4
f 266/4/4 265/4/4 267/4/4
f 266/5/4 267/5/4 268/5/4
f 267/4/4 265/4/4 269/4/4
f 268/5/4 267/5/4 269/5/4
f 268/4/4 269/4/4 270/4/4
f 269/4/4 265/4/4 271/4/4
f 270/4/4 269/4/4 271/4/4
f 272/4/4 273/4/4 274/4/4
f 274/4/4 273/4/4 275/4/4
f 274/5/4 275/5/4 276/5/4
f 275/4/4 273/4/4 277/4/4
f 276/5/4 275/5/4 277/5/4
f 276/4/4 277/4/4 282/4/4
f 277/4/4 273/4/4 283/4/4
f 282/4/4 277/4/4 283/4/4
f 278/6/4 279/6/4 284/6/4
f 284/6/4 279/6/4 285/6/4
f 280/6/4 281/6/4 286/6/4
f 286/6/4 281/6/4 287/6/4
f 288/6/4 289/6/4 292/6/4
f 289/8/4 290/8/4 293/8/4
f 292/6/4 289/6/4 293/6/4
f 290/3/4 291/3/4 294/3/4
f 294/3/4 291/3/4 295/3/4
f 295/3/4 291/3/4 296/3/4
f 290/3/4 294/3/4 297/3/4
f 296/3/4 291/3/4 299/3/4
f 292/8/4 293/8/4 300/8/4
f 293/8/4 290/8/4 301/8/4
f 300/8/4 293/8/4 301/8/4
f 300/6/4 301/6/4 302/6/4
f 301/8/4 290/8/4 303/8/4
f 302/6/4 301/6/4 303/6/4
f 298/3/4 299/3/4 304/3/4
f 303/8/4 290/8/4 304/8/4
f 297/3/4 298/3/4 304/3/4
f 290/3/4 297/3/4 304/3/4
f 299/3/4 291/3/4 305/3/4
f 304/3/4 299/3/4 305/3/4
f 306/2/4 307/2/4 313/2/4
f 307/3/4 308/3/4 314/3/4
f 313/2/4 307/2/4 314/2/4
f 308/2/4 309/2/4 315/2/4
f 314/3/4 308/3/4 315/3/4
f 309/3/4 310/3/4 316/3/4
f 315/2/4 309/2/4 316/2/4
f 310/2/4 311/2/4 317/2/4
f 316/3/4 310/3/4 317/3/4
f 311/3/4 312/3/4 318/3/4
f 317/2/4 311/2/4 318/2/4
f 318/3/4 312/3/4 319/3/4
f 326/6/5 321/6/5 320/6/5
f 327/8/5 322/8/5 321/8/5
f 327/6/5 321/6/5 326/6/5
f 328/5/5 323/5/5 322/5/5
f 328/8/5 322/8/5 327/8/5
f 329/8/5 324/8/5 323/8/5
f 329/5/5 323/5/5 328/5/5
f 330/6/5 325/6/5 324/6/5
f 330/8/5 324/8/5 329/8/5
f 331/6/5 325/6/5 330/6/5
f 332/6/5 326/6/5 320/6/5
f 333/8/5 329/8/5 328/8/5
f 333/6/5 326/6/5 332/6/5
f 333/8/5 327/8/5 326/8/5
f 333/8/5 331/8/5 330/8/5
f 333/8/5 330/8/5 329/8/5
f 333/8/5 328/8/5 327/8/5
f 334/6/5 325/6/5 331/6/5
f 334/8/5 331/8/5 333/8/5
f 335/6/5 325/6/5 334/6/5
f 336/8/5 333/8/5 332/8/5
f 336/8/5 334/8/5 333/8/5
f 336/8/5 335/8/5 334/8/5
f 337/8/5 335/8/5 336/8/5
f 338/8/5 335/8/5 337/8/5
f 339/8/5 335/8/5 338/8/5
f 340/3/5 337/3/5 336/3/5
f 341/8/5 338/8/5 337/8/5
f 341/3/5 337/3/5 340/3/5
f 342/3/5 339/3/5 338/3/5
f 342/8/5 338/8/5 341/8/5
f 343/3/5 339/3/5 342/3/5
f 344/6/5 341/6/5 340/6/5
f 344/8/5 342/8/5 341/8/5
f 345/8/5 342/8/5 344/8/5
f 346/8/5 342/8/5 345/8/5
f 347/6/5 343/6/5 342/6/5
f 347/8/5 342/8/5 346/8/5
f 348/6/5 344/6/5 340/6/5
f 348/6/5 345/6/5 344/6/5
f 349/8/5 346/8/5 345/8/5
f 349/6/5 345/6/5 348/6/5
f 350/6/5 347/6/5 346/6/5
f 350/8/5 346/8/5 349/8/5
f 351/6/5 343/6/5 347/6/5
f 351/6/5 347/6/5 350/6/5
f 358/2/5 353/2/5 352/2/5
f 359/2/5 353/2/5 358/2/5
f 360/2/5 355/2/5 354/2/5
f 361/2/5 355/2/5 360/2/5
f 364/6/5 357/6/5 356/6/5
f 365/6/5 357/6/5 364/6/5
f 366/6/5 363/6/5 362/6/5
f 367/6/5 363/6/5 366/6/5
f 370/7/5 369/7/5 368/7/5
f 371/7/5 369/7/5 370/7/5
f 376/6/5 373/6/5 372/6/5
f 377/6/5 373/6/5 376/6/5
f 378/6/5 375/6/5 374/6/5
f 379/6/5 375/6/5 378/6/5
f 382/2/5 381/2/5 380/2/5
f 383/2/5 381/2/5 382/2/5
f 386/2/5 385/2/5 384/2/5
f 387/2/5 385/2/5 386/2/5
f 388/6/6 389/6/6 392/6/6
f 392/6/6 389/6/6 393/6/6
f 390/6/6 391/6/6 394/6/6
f 394/6/6 391/6/6 395/6/6
f 396/7/6 397/7/6 402/7/6
f 397/1/6 398/1/6 403/1/6
f 402/7/6 397/7/6 403/7/6
f 398/7/6 399/7/6 404/7/6
f 403/1/6 398/1/6 404/1/6
f 404/7/6 399/7/6 405/7/6
f 400/6/6 401/6/6 408/6/6
f 408/6/6 401/6/6 409/6/6
f 406/6/6 407/6/6 410/6/6
f 410/6/6 407/6/6 411/6/6
f 412/3/6 413/3/6 414/3/6
f 414/3/6 413/3/6 415/3/6
f 416/8/6 417/8/6 421/8/6
f 421/8/6 417/8/6 422/8/6
f 419/8/6 420/8/6 426/8/6
f 424/8/6 425/8/6 426/8/6
f 423/8/6 424/8/6 426/8/6
f 422/8/6 423/8/6 426/8/6
f 421/8/6 422/8/6 426/8/6
f 420/8/6 421/8/6 426/8/6
f 418/8/6 419/8/6 426/8/6
f 426/8/6 425/8/6 427/8/6
f 427/8/6 425/8/6 428/8/6
f 428/8/6 425/8/6 429/8/6
f 426/3/6 427/3/6 430/3/6
f 427/8/6 428/8/6 431/8/6
f 430/3/6 427/3/6 431/3/6
f 428/3/6 429/3/6 432/3/6
f 431/8/6 428/8/6 432/8/6
f 429/8/6 425/8/6 433/8/6
f 432/3/6 429/3/6 433/3/6
f 431/8/6 432/8/6 434/8/6
f 430/8/6 431/8/6 434/8/6
f 432/8/6 433/8/6 434/8/6
f 433/8/6 425/8/6 435/8/6
f 434/8/6 433/8/6 435/8/6
f 434/9/6 435/9/6 436/9/6
f 436/9/6 435/9/6 437/9/6
f 436/8/6 437/8/6 438/8/6
f 438/8/6 437/8/6 439/8/6
f 438/9/6 439/9/6 440/9/6
f 440/9/6 439/9/6 441/9/6
f 440/8/6 441/8/6 442/8/6
f 442/8/6 441/8/6 443/8/6
f 442/9/6 443/9/6 444/9/6
f 444/9/6 443/9/6 445/9/6
f 444/8/6 445/8/6 446/8/6
f 446/8/6 445/8/6 447/8/6
f 446/3/6 447/3/6 448/3/6
f 448/3/6 447/3/6 449/3/6
f 450/2/6 451/2/6 452/2/6
f 452/2/6 451/2/6 453/2/6
f 452/3/6 453/3/6 454/3/6
f 454/3/6 453/3/6 455/3/6
f 456/4/6 457/4/6 460/4/6
f 460/4/6 457/4/6 461/4/6
f 458/4/6 459/4/6 462/4/6
f 462/4/6 459/4/6 463/4/6
