# MagicaVoxel @ Ephtracy

# group
g cow2

# material
mtllib cow2.mtl
usemtl palette

# normals
vn -1 0 0
vn 1 0 0
vn 0 0 1
vn 0 0 -1
vn 0 -1 0
vn 0 1 0

# texcoords
vt 0.751953 0.5
vt 0.759766 0.5
vt 0.763672 0.5
vt 0.779297 0.5
vt 0.822266 0.5
vt 0.826172 0.5
vt 0.833984 0.5
vt 0.841797 0.5
vt 0.873047 0.5
vt 0.939453 0.5
vt 0.943359 0.5

# verts
v -8 5 2
v -8 5 -2
v -8 6 1
v -8 6 -1
v -8 9 2
v -8 9 1
v -8 9 -1
v -8 9 -2
v -6 0 6
v -6 0 3
v -6 0 -3
v -6 0 -6
v -6 1 5
v -6 1 4
v -6 1 -4
v -6 1 -5
v -6 2 6
v -6 2 5
v -6 2 4
v -6 2 3
v -6 2 -3
v -6 2 -4
v -6 2 -5
v -6 2 -6
v -6 3 3
v -6 3 1
v -6 3 -3
v -6 3 -4
v -6 3 -5
v -6 3 -6
v -6 4 4
v -6 4 3
v -6 4 -5
v -6 4 -6
v -6 5 3
v -6 5 1
v -6 8 2
v -6 8 1
v -6 8 -1
v -6 8 -2
v -6 9 2
v -6 9 1
v -6 9 -1
v -6 9 -2
v -6 11 6
v -6 11 5
v -6 12 6
v -6 12 5
v -6 12 -6
v -4 2 8
v -4 2 6
v -4 7 8
v -4 7 6
v -4 12 4
v -4 12 2
v -4 13 3
v -4 13 2
v -4 15 4
v -4 15 3
v -3 1 7
v -3 1 6
v -3 2 7
v -3 2 6
v -1 4 8
v -1 4 7
v -1 5 8
v -1 5 7
v 2 4 8
v 2 4 7
v 2 5 8
v 2 5 7
v 2 12 4
v 2 12 2
v 2 13 4
v 2 13 2
v 3 13 4
v 3 13 3
v 3 15 4
v 3 15 3
v 7 5 2
v 7 5 -2
v 7 6 1
v 7 6 -1
v 7 7 2
v 7 7 1
v 7 8 2
v 7 8 1
v 7 8 -1
v 7 8 -2
v -7 5 2
v -7 5 -2
v -7 6 1
v -7 6 -1
v -7 8 2
v -7 8 1
v -7 8 -1
v -7 8 -2
v -3 13 4
v -3 13 3
v -3 15 4
v -3 15 3
v -2 4 8
v -2 4 7
v -2 5 8
v -2 5 7
v -2 12 4
v -2 12 2
v -2 13 4
v -2 13 2
v 1 4 8
v 1 4 7
v 1 5 8
v 1 5 7
v 3 1 7
v 3 1 6
v 3 2 7
v 3 2 6
v 4 2 8
v 4 2 6
v 4 7 8
v 4 7 6
v 4 12 4
v 4 12 2
v 4 13 3
v 4 13 2
v 4 15 4
v 4 15 3
v 6 0 6
v 6 0 3
v 6 0 -3
v 6 0 -6
v 6 1 5
v 6 1 4
v 6 1 -4
v 6 1 -5
v 6 2 6
v 6 2 5
v 6 2 4
v 6 2 3
v 6 2 1
v 6 2 -1
v 6 2 -3
v 6 2 -4
v 6 2 -5
v 6 2 -6
v 6 3 1
v 6 3 -1
v 6 8 2
v 6 8 1
v 6 8 -2
v 6 9 2
v 6 9 1
v 6 9 -2
v 6 9 -3
v 6 9 -5
v 6 10 6
v 6 10 3
v 6 10 -3
v 6 10 -4
v 6 11 -4
v 6 11 -5
v 6 12 6
v 6 12 3
v 6 12 -6
v 8 5 2
v 8 5 -2
v 8 6 1
v 8 6 -1
v 8 7 2
v 8 7 1
v 8 8 -0
v 8 8 -1
v 8 9 2
v 8 9 1
v 8 9 -0
v 8 9 -2
v -4 2 8
v -4 7 8
v -2 4 8
v -2 5 8
v -1 4 8
v -1 5 8
v 1 4 8
v 1 5 8
v 2 4 8
v 2 5 8
v 4 2 8
v 4 7 8
v -3 1 7
v -3 2 7
v -2 4 7
v -2 5 7
v -1 4 7
v -1 5 7
v 1 4 7
v 1 5 7
v 2 4 7
v 2 5 7
v 3 1 7
v 3 2 7
v -6 0 6
v -6 2 6
v -6 11 6
v -6 12 6
v -5 1 6
v -5 2 6
v -5 10 6
v -5 11 6
v -5 12 6
v -4 1 6
v -4 2 6
v -4 7 6
v -3 0 6
v -3 1 6
v -3 2 6
v -3 7 6
v -3 8 6
v -3 9 6
v -2 7 6
v -2 8 6
v -2 9 6
v -2 10 6
v -2 11 6
v 1 9 6
v 1 11 6
v 2 7 6
v 2 9 6
v 2 10 6
v 2 11 6
v 2 12 6
v 3 0 6
v 3 1 6
v 3 2 6
v 3 7 6
v 3 9 6
v 3 10 6
v 3 11 6
v 4 1 6
v 4 2 6
v 4 7 6
v 5 1 6
v 5 2 6
v 6 0 6
v 6 2 6
v 6 10 6
v 6 12 6
v -4 12 4
v -4 15 4
v -3 13 4
v -3 15 4
v -2 12 4
v -2 13 4
v 2 12 4
v 2 13 4
v 3 13 4
v 3 15 4
v 4 12 4
v 4 15 4
v -8 5 2
v -8 9 2
v -7 5 2
v -7 8 2
v -6 8 2
v -6 9 2
v 6 8 2
v 6 9 2
v 7 5 2
v 7 7 2
v 7 8 2
v 8 5 2
v 8 7 2
v 8 9 2
v -4 13 3
v -4 15 3
v -3 13 3
v -3 15 3
v 3 13 3
v 3 15 3
v 4 13 3
v 4 15 3
v -4 12 2
v -4 13 2
v -2 12 2
v -2 13 2
v 2 12 2
v 2 13 2
v 4 12 2
v 4 13 2
v -8 5 -2
v -8 9 -2
v -7 5 -2
v -7 8 -2
v -6 8 -2
v -6 9 -2
v 6 8 -2
v 6 9 -2
v 7 5 -2
v 7 8 -2
v 8 5 -2
v 8 9 -2
v -6 0 -6
v -6 2 -6
v -6 3 -6
v -6 4 -6
v -6 12 -6
v -5 1 -6
v -5 2 -6
v -5 3 -6
v -4 1 -6
v -4 2 -6
v -3 0 -6
v -3 1 -6
v -3 2 -6
v -3 4 -6
v -3 6 -6
v -3 7 -6
v -3 11 -6
v -3 12 -6
v -2 1 -6
v -2 2 -6
v -1 6 -6
v -1 7 -6
v 0 11 -6
v 0 12 -6
v 2 0 -6
v 2 2 -6
v 2 6 -6
v 2 8 -6
v 3 0 -6
v 3 2 -6
v 3 3 -6
v 4 1 -6
v 4 2 -6
v 4 6 -6
v 4 8 -6
v 5 1 -6
v 5 2 -6
v 5 3 -6
v 6 0 -6
v 6 2 -6
v 6 12 -6
v -6 0 6
v -3 0 6
v 3 0 6
v 6 0 6
v -5 0 5
v -3 0 5
v 3 0 5
v 5 0 5
v -6 0 3
v -5 0 3
v 5 0 3
v 6 0 3
v -6 0 -3
v -5 0 -3
v 5 0 -3
v 6 0 -3
v -5 0 -5
v -3 0 -5
v 2 0 -5
v 3 0 -5
v 5 0 -5
v -6 0 -6
v -3 0 -6
v 2 0 -6
v 3 0 -6
v 6 0 -6
v -3 1 7
v 3 1 7
v -3 1 6
v 3 1 6
v -4 2 8
v 4 2 8
v -3 2 7
v 3 2 7
v -4 2 6
v -3 2 6
v 3 2 6
v 4 2 6
v -2 5 8
v -1 5 8
v 1 5 8
v 2 5 8
v -2 5 7
v -1 5 7
v 1 5 7
v 2 5 7
v -8 5 2
v -7 5 2
v 7 5 2
v 8 5 2
v -8 5 -2
v -7 5 -2
v 7 5 -2
v 8 5 -2
v -7 8 2
v -6 8 2
v 6 8 2
v 7 8 2
v -7 8 1
v -6 8 1
v 6 8 1
v 7 8 1
v -7 8 -1
v -6 8 -1
v 7 8 -1
v -7 8 -2
v -6 8 -2
v 6 8 -2
v 7 8 -2
v -2 4 8
v -1 4 8
v 1 4 8
v 2 4 8
v -2 4 7
v -1 4 7
v 1 4 7
v 2 4 7
v -4 7 8
v 4 7 8
v -4 7 6
v -3 7 6
v -2 7 6
v 2 7 6
v 3 7 6
v 4 7 6
v -8 9 2
v -6 9 2
v 6 9 2
v 8 9 2
v -8 9 1
v -6 9 1
v 6 9 1
v 7 9 1
v 8 9 1
v 7 9 -0
v 8 9 -0
v -8 9 -1
v -6 9 -1
v -8 9 -2
v -6 9 -2
v 6 9 -2
v 8 9 -2
v -6 12 6
v -5 12 6
v 2 12 6
v 6 12 6
v -6 12 5
v -5 12 5
v 2 12 5
v 5 12 5
v -4 12 4
v -2 12 4
v 2 12 4
v 4 12 4
v 5 12 3
v 6 12 3
v -4 12 2
v -2 12 2
v 2 12 2
v 4 12 2
v -3 12 -3
v 0 12 -3
v -6 12 -6
v -3 12 -6
v 0 12 -6
v 6 12 -6
v -3 13 4
v -2 13 4
v 2 13 4
v 3 13 4
v -4 13 3
v -3 13 3
v 3 13 3
v 4 13 3
v -4 13 2
v -2 13 2
v 2 13 2
v 4 13 2
v -4 15 4
v -3 15 4
v 3 15 4
v 4 15 4
v -4 15 3
v -3 15 3
v 3 15 3
v 4 15 3

# faces
f 3/11/1 2/11/1 1/11/1
f 4/11/1 2/11/1 3/11/1
f 5/11/1 3/11/1 1/11/1
f 6/3/1 4/3/1 3/3/1
f 6/11/1 3/11/1 5/11/1
f 7/11/1 2/11/1 4/11/1
f 7/3/1 4/3/1 6/3/1
f 8/11/1 2/11/1 7/11/1
f 13/4/1 10/4/1 9/4/1
f 14/4/1 10/4/1 13/4/1
f 15/4/1 12/4/1 11/4/1
f 16/4/1 12/4/1 15/4/1
f 17/4/1 13/4/1 9/4/1
f 18/10/1 14/10/1 13/10/1
f 18/4/1 13/4/1 17/4/1
f 19/4/1 10/4/1 14/4/1
f 19/10/1 14/10/1 18/10/1
f 20/10/1 11/10/1 10/10/1
f 20/4/1 10/4/1 19/4/1
f 21/4/1 15/4/1 11/4/1
f 21/10/1 11/10/1 20/10/1
f 22/10/1 16/10/1 15/10/1
f 22/4/1 15/4/1 21/4/1
f 23/4/1 12/4/1 16/4/1
f 23/10/1 16/10/1 22/10/1
f 24/4/1 12/4/1 23/4/1
f 25/2/1 20/2/1 19/2/1
f 25/10/1 21/10/1 20/10/1
f 26/10/1 21/10/1 25/10/1
f 27/2/1 22/2/1 21/2/1
f 27/10/1 21/10/1 26/10/1
f 28/3/1 23/3/1 22/3/1
f 28/2/1 22/2/1 27/2/1
f 29/10/1 24/10/1 23/10/1
f 29/3/1 23/3/1 28/3/1
f 30/10/1 24/10/1 29/10/1
f 31/10/1 18/10/1 17/10/1
f 31/10/1 19/10/1 18/10/1
f 31/2/1 25/2/1 19/2/1
f 32/3/1 26/3/1 25/3/1
f 32/2/1 25/2/1 31/2/1
f 33/2/1 30/2/1 29/2/1
f 33/10/1 28/10/1 27/10/1
f 33/10/1 27/10/1 26/10/1
f 33/10/1 29/10/1 28/10/1
f 34/2/1 30/2/1 33/2/1
f 35/3/1 26/3/1 32/3/1
f 35/10/1 32/10/1 31/10/1
f 36/10/1 34/10/1 33/10/1
f 36/3/1 26/3/1 35/3/1
f 36/10/1 33/10/1 26/10/1
f 37/10/1 36/10/1 35/10/1
f 38/10/1 34/10/1 36/10/1
f 38/10/1 36/10/1 37/10/1
f 39/10/1 34/10/1 38/10/1
f 40/10/1 34/10/1 39/10/1
f 41/10/1 37/10/1 35/10/1
f 44/10/1 34/10/1 40/10/1
f 45/10/1 31/10/1 17/10/1
f 45/10/1 44/10/1 43/10/1
f 45/10/1 35/10/1 31/10/1
f 45/10/1 43/10/1 42/10/1
f 45/10/1 42/10/1 41/10/1
f 45/10/1 41/10/1 35/10/1
f 46/10/1 44/10/1 45/10/1
f 47/2/1 46/2/1 45/2/1
f 48/10/1 44/10/1 46/10/1
f 48/2/1 46/2/1 47/2/1
f 49/10/1 34/10/1 44/10/1
f 49/10/1 44/10/1 48/10/1
f 52/6/1 51/6/1 50/6/1
f 53/6/1 51/6/1 52/6/1
f 56/11/1 55/11/1 54/11/1
f 57/11/1 55/11/1 56/11/1
f 58/11/1 56/11/1 54/11/1
f 59/11/1 56/11/1 58/11/1
f 62/6/1 61/6/1 60/6/1
f 63/6/1 61/6/1 62/6/1
f 66/6/1 65/6/1 64/6/1
f 67/6/1 65/6/1 66/6/1
f 70/6/1 69/6/1 68/6/1
f 71/6/1 69/6/1 70/6/1
f 74/11/1 73/11/1 72/11/1
f 75/11/1 73/11/1 74/11/1
f 78/11/1 77/11/1 76/11/1
f 79/11/1 77/11/1 78/11/1
f 82/11/1 81/11/1 80/11/1
f 83/11/1 81/11/1 82/11/1
f 84/11/1 82/11/1 80/11/1
f 85/2/1 83/2/1 82/2/1
f 85/11/1 82/11/1 84/11/1
f 86/3/1 85/3/1 84/3/1
f 87/2/1 83/2/1 85/2/1
f 87/3/1 85/3/1 86/3/1
f 88/11/1 81/11/1 83/11/1
f 88/2/1 83/2/1 87/2/1
f 89/11/1 81/11/1 88/11/1
f 90/11/2 91/11/2 92/11/2
f 92/11/2 91/11/2 93/11/2
f 90/11/2 92/11/2 94/11/2
f 92/3/2 93/3/2 95/3/2
f 94/11/2 92/11/2 95/11/2
f 93/11/2 91/11/2 96/11/2
f 95/3/2 93/3/2 96/3/2
f 96/11/2 91/11/2 97/11/2
f 98/11/2 99/11/2 100/11/2
f 100/11/2 99/11/2 101/11/2
f 102/6/2 103/6/2 104/6/2
f 104/6/2 103/6/2 105/6/2
f 106/11/2 107/11/2 108/11/2
f 108/11/2 107/11/2 109/11/2
f 110/6/2 111/6/2 112/6/2
f 112/6/2 111/6/2 113/6/2
f 114/6/2 115/6/2 116/6/2
f 116/6/2 115/6/2 117/6/2
f 118/6/2 119/6/2 120/6/2
f 120/6/2 119/6/2 121/6/2
f 122/11/2 123/11/2 124/11/2
f 124/11/2 123/11/2 125/11/2
f 122/11/2 124/11/2 126/11/2
f 126/11/2 124/11/2 127/11/2
f 128/4/2 129/4/2 132/4/2
f 132/4/2 129/4/2 133/4/2
f 130/4/2 131/4/2 134/4/2
f 134/4/2 131/4/2 135/4/2
f 128/4/2 132/4/2 136/4/2
f 132/10/2 133/10/2 137/10/2
f 136/4/2 132/4/2 137/4/2
f 133/4/2 129/4/2 138/4/2
f 137/10/2 133/10/2 138/10/2
f 129/10/2 130/10/2 139/10/2
f 138/4/2 129/4/2 139/4/2
f 139/10/2 130/10/2 140/10/2
f 140/10/2 130/10/2 141/10/2
f 130/4/2 134/4/2 142/4/2
f 141/10/2 130/10/2 142/10/2
f 134/10/2 135/10/2 143/10/2
f 142/4/2 134/4/2 143/4/2
f 135/4/2 131/4/2 144/4/2
f 143/10/2 135/10/2 144/10/2
f 144/4/2 131/4/2 145/4/2
f 136/10/2 137/10/2 146/10/2
f 137/10/2 138/10/2 146/10/2
f 140/2/2 141/2/2 146/2/2
f 138/10/2 139/10/2 146/10/2
f 139/10/2 140/10/2 146/10/2
f 144/10/2 145/10/2 147/10/2
f 146/2/2 141/2/2 147/2/2
f 142/10/2 143/10/2 147/10/2
f 141/10/2 142/10/2 147/10/2
f 143/10/2 144/10/2 147/10/2
f 136/10/2 146/10/2 148/10/2
f 146/10/2 147/10/2 148/10/2
f 148/10/2 147/10/2 149/10/2
f 147/10/2 145/10/2 150/10/2
f 149/10/2 147/10/2 150/10/2
f 136/10/2 148/10/2 151/10/2
f 150/10/2 145/10/2 153/10/2
f 153/10/2 145/10/2 154/10/2
f 154/10/2 145/10/2 155/10/2
f 151/10/2 152/10/2 156/10/2
f 136/10/2 151/10/2 156/10/2
f 152/10/2 153/10/2 156/10/2
f 153/10/2 154/10/2 156/10/2
f 156/10/2 154/10/2 157/10/2
f 154/2/2 155/2/2 158/2/2
f 157/10/2 154/10/2 158/10/2
f 158/2/2 155/2/2 159/2/2
f 157/10/2 158/10/2 160/10/2
f 159/2/2 155/2/2 160/2/2
f 158/10/2 159/10/2 160/10/2
f 155/10/2 145/10/2 161/10/2
f 160/2/2 155/2/2 161/2/2
f 156/3/2 157/3/2 162/3/2
f 157/10/2 160/10/2 163/10/2
f 162/3/2 157/3/2 163/3/2
f 160/10/2 161/10/2 163/10/2
f 161/10/2 145/10/2 164/10/2
f 163/10/2 161/10/2 164/10/2
f 165/11/2 166/11/2 167/11/2
f 167/11/2 166/11/2 168/11/2
f 165/11/2 167/11/2 169/11/2
f 167/2/2 168/2/2 170/2/2
f 169/11/2 167/11/2 170/11/2
f 170/2/2 168/2/2 171/2/2
f 168/11/2 166/11/2 172/11/2
f 171/2/2 168/2/2 172/2/2
f 169/3/2 170/3/2 173/3/2
f 170/2/2 171/2/2 174/2/2
f 173/3/2 170/3/2 174/3/2
f 171/11/2 172/11/2 175/11/2
f 174/2/2 171/2/2 175/2/2
f 172/11/2 166/11/2 176/11/2
f 175/11/2 172/11/2 176/11/2
f 179/6/3 178/6/3 177/6/3
f 180/6/3 178/6/3 179/6/3
f 181/6/3 179/6/3 177/6/3
f 182/6/3 178/6/3 180/6/3
f 183/6/3 181/6/3 177/6/3
f 183/6/3 182/6/3 181/6/3
f 184/6/3 178/6/3 182/6/3
f 184/6/3 182/6/3 183/6/3
f 185/6/3 183/6/3 177/6/3
f 186/6/3 178/6/3 184/6/3
f 187/6/3 185/6/3 177/6/3
f 187/6/3 186/6/3 185/6/3
f 188/6/3 178/6/3 186/6/3
f 188/6/3 186/6/3 187/6/3
f 193/7/3 192/7/3 191/7/3
f 194/7/3 192/7/3 193/7/3
f 197/7/3 196/7/3 195/7/3
f 198/7/3 196/7/3 197/7/3
f 199/6/3 190/6/3 189/6/3
f 200/6/3 190/6/3 199/6/3
f 205/4/3 202/4/3 201/4/3
f 206/10/3 203/10/3 202/10/3
f 206/4/3 202/4/3 205/4/3
f 207/10/3 203/10/3 206/10/3
f 208/2/3 204/2/3 203/2/3
f 208/10/3 203/10/3 207/10/3
f 209/2/3 204/2/3 208/2/3
f 210/10/3 207/10/3 206/10/3
f 210/4/3 205/4/3 201/4/3
f 210/10/3 206/10/3 205/10/3
f 211/10/3 207/10/3 210/10/3
f 212/10/3 207/10/3 211/10/3
f 213/4/3 210/4/3 201/4/3
f 213/4/3 211/4/3 210/4/3
f 214/4/3 211/4/3 213/4/3
f 215/4/3 211/4/3 214/4/3
f 216/10/3 207/10/3 212/10/3
f 217/10/3 207/10/3 216/10/3
f 218/10/3 207/10/3 217/10/3
f 219/9/3 217/9/3 216/9/3
f 220/8/3 218/8/3 217/8/3
f 220/9/3 217/9/3 219/9/3
f 221/10/3 207/10/3 218/10/3
f 221/8/3 218/8/3 220/8/3
f 222/2/3 208/2/3 207/2/3
f 222/10/3 207/10/3 221/10/3
f 223/10/3 209/10/3 208/10/3
f 223/2/3 208/2/3 222/2/3
f 224/10/3 222/10/3 221/10/3
f 224/10/3 221/10/3 220/10/3
f 224/10/3 223/10/3 222/10/3
f 224/10/3 220/10/3 219/10/3
f 225/10/3 209/10/3 223/10/3
f 225/10/3 223/10/3 224/10/3
f 226/10/3 224/10/3 219/10/3
f 227/2/3 225/2/3 224/2/3
f 227/10/3 224/10/3 226/10/3
f 228/2/3 225/2/3 227/2/3
f 229/10/3 209/10/3 225/10/3
f 229/2/3 225/2/3 228/2/3
f 230/10/3 209/10/3 229/10/3
f 231/10/3 214/10/3 213/10/3
f 232/10/3 214/10/3 231/10/3
f 234/9/3 227/9/3 226/9/3
f 235/10/3 228/10/3 227/10/3
f 235/9/3 227/9/3 234/9/3
f 236/2/3 229/2/3 228/2/3
f 236/10/3 228/10/3 235/10/3
f 237/3/3 230/3/3 229/3/3
f 237/2/3 229/2/3 236/2/3
f 238/4/3 233/4/3 232/4/3
f 238/4/3 232/4/3 231/4/3
f 239/4/3 233/4/3 238/4/3
f 240/10/3 235/10/3 234/10/3
f 240/10/3 236/10/3 235/10/3
f 241/10/3 239/10/3 238/10/3
f 241/10/3 240/10/3 239/10/3
f 241/4/3 238/4/3 231/4/3
f 242/10/3 240/10/3 241/10/3
f 243/4/3 241/4/3 231/4/3
f 243/4/3 242/4/3 241/4/3
f 244/10/3 240/10/3 242/10/3
f 244/4/3 242/4/3 243/4/3
f 245/10/3 236/10/3 240/10/3
f 245/10/3 240/10/3 244/10/3
f 245/3/3 237/3/3 236/3/3
f 246/3/3 230/3/3 237/3/3
f 246/3/3 237/3/3 245/3/3
f 249/11/3 248/11/3 247/11/3
f 250/11/3 248/11/3 249/11/3
f 251/11/3 249/11/3 247/11/3
f 252/11/3 249/11/3 251/11/3
f 255/11/3 254/11/3 253/11/3
f 257/11/3 255/11/3 253/11/3
f 257/11/3 256/11/3 255/11/3
f 258/11/3 256/11/3 257/11/3
f 261/11/3 260/11/3 259/11/3
f 262/11/3 260/11/3 261/11/3
f 263/11/3 260/11/3 262/11/3
f 264/11/3 260/11/3 263/11/3
f 269/3/3 266/3/3 265/3/3
f 270/11/3 268/11/3 267/11/3
f 271/3/3 269/3/3 268/3/3
f 271/11/3 268/11/3 270/11/3
f 272/3/3 266/3/3 269/3/3
f 272/3/3 269/3/3 271/3/3
f 273/11/4 274/11/4 275/11/4
f 275/11/4 274/11/4 276/11/4
f 277/11/4 278/11/4 279/11/4
f 279/11/4 278/11/4 280/11/4
f 281/11/4 282/11/4 283/11/4
f 283/11/4 282/11/4 284/11/4
f 285/11/4 286/11/4 287/11/4
f 287/11/4 286/11/4 288/11/4
f 289/11/4 290/11/4 291/11/4
f 291/11/4 290/11/4 292/11/4
f 292/11/4 290/11/4 293/11/4
f 293/11/4 290/11/4 294/11/4
f 295/11/4 296/11/4 298/11/4
f 297/11/4 298/11/4 299/11/4
f 298/11/4 296/11/4 300/11/4
f 299/11/4 298/11/4 300/11/4
f 301/4/4 302/4/4 306/4/4
f 302/10/4 303/10/4 307/10/4
f 306/4/4 302/4/4 307/4/4
f 303/2/4 304/2/4 308/2/4
f 307/10/4 303/10/4 308/10/4
f 301/4/4 306/4/4 309/4/4
f 306/10/4 307/10/4 309/10/4
f 307/2/4 308/2/4 310/2/4
f 309/10/4 307/10/4 310/10/4
f 301/4/4 309/4/4 311/4/4
f 309/4/4 310/4/4 311/4/4
f 311/4/4 310/4/4 312/4/4
f 310/2/4 308/2/4 313/2/4
f 312/4/4 310/4/4 313/4/4
f 304/10/4 305/10/4 314/10/4
f 313/2/4 308/2/4 314/2/4
f 308/2/4 304/2/4 314/2/4
f 314/10/4 305/10/4 315/10/4
f 315/10/4 305/10/4 316/10/4
f 316/10/4 305/10/4 317/10/4
f 317/10/4 305/10/4 318/10/4
f 312/2/4 313/2/4 319/2/4
f 311/10/4 312/10/4 319/10/4
f 313/10/4 314/10/4 320/10/4
f 319/2/4 313/2/4 320/2/4
f 314/10/4 315/10/4 320/10/4
f 315/2/4 316/2/4 321/2/4
f 320/10/4 315/10/4 321/10/4
f 319/10/4 320/10/4 321/10/4
f 316/10/4 317/10/4 322/10/4
f 321/2/4 316/2/4 322/2/4
f 317/3/4 318/3/4 323/3/4
f 322/10/4 317/10/4 323/10/4
f 321/10/4 322/10/4 323/10/4
f 323/3/4 318/3/4 324/3/4
f 319/10/4 321/10/4 325/10/4
f 311/10/4 319/10/4 325/10/4
f 323/10/4 324/10/4 325/10/4
f 321/10/4 323/10/4 325/10/4
f 325/10/4 324/10/4 326/10/4
f 326/10/4 324/10/4 327/10/4
f 327/10/4 324/10/4 328/10/4
f 325/1/4 326/1/4 329/1/4
f 326/10/4 327/10/4 330/10/4
f 329/1/4 326/1/4 330/1/4
f 330/10/4 327/10/4 331/10/4
f 329/4/4 330/4/4 332/4/4
f 330/2/4 331/2/4 333/2/4
f 332/4/4 330/4/4 333/4/4
f 327/2/4 328/2/4 334/2/4
f 331/10/4 327/10/4 334/10/4
f 328/10/4 324/10/4 335/10/4
f 334/2/4 328/2/4 335/2/4
f 332/2/4 333/2/4 336/2/4
f 329/4/4 332/4/4 336/4/4
f 333/2/4 331/2/4 337/2/4
f 336/2/4 333/2/4 337/2/4
f 331/10/4 334/10/4 338/10/4
f 337/2/4 331/2/4 338/2/4
f 334/10/4 335/10/4 338/10/4
f 336/4/4 337/4/4 339/4/4
f 329/4/4 336/4/4 339/4/4
f 337/10/4 338/10/4 340/10/4
f 339/4/4 337/4/4 340/4/4
f 338/10/4 335/10/4 341/10/4
f 340/10/4 338/10/4 341/10/4
f 335/10/4 324/10/4 341/10/4
f 346/4/5 343/4/5 342/4/5
f 347/10/5 344/10/5 343/10/5
f 347/4/5 343/4/5 346/4/5
f 348/4/5 345/4/5 344/4/5
f 348/10/5 344/10/5 347/10/5
f 349/4/5 345/4/5 348/4/5
f 350/4/5 346/4/5 342/4/5
f 351/10/5 347/10/5 346/10/5
f 351/4/5 346/4/5 350/4/5
f 351/10/5 348/10/5 347/10/5
f 351/10/5 349/10/5 348/10/5
f 352/4/5 345/4/5 349/4/5
f 352/10/5 349/10/5 351/10/5
f 353/4/5 345/4/5 352/4/5
f 354/10/5 351/10/5 350/10/5
f 354/10/5 352/10/5 351/10/5
f 354/10/5 353/10/5 352/10/5
f 355/10/5 353/10/5 354/10/5
f 356/10/5 353/10/5 355/10/5
f 357/10/5 353/10/5 356/10/5
f 358/4/5 355/4/5 354/4/5
f 358/10/5 356/10/5 355/10/5
f 359/10/5 356/10/5 358/10/5
f 360/10/5 356/10/5 359/10/5
f 361/10/5 356/10/5 360/10/5
f 362/4/5 357/4/5 356/4/5
f 362/10/5 356/10/5 361/10/5
f 363/4/5 358/4/5 354/4/5
f 363/4/5 359/4/5 358/4/5
f 364/10/5 360/10/5 359/10/5
f 364/4/5 359/4/5 363/4/5
f 365/1/5 361/1/5 360/1/5
f 365/10/5 360/10/5 364/10/5
f 366/4/5 362/4/5 361/4/5
f 366/1/5 361/1/5 365/1/5
f 367/4/5 357/4/5 362/4/5
f 367/4/5 362/4/5 366/4/5
f 370/6/5 369/6/5 368/6/5
f 371/6/5 369/6/5 370/6/5
f 374/6/5 373/6/5 372/6/5
f 375/6/5 373/6/5 374/6/5
f 376/6/5 374/6/5 372/6/5
f 377/6/5 374/6/5 376/6/5
f 378/6/5 373/6/5 375/6/5
f 379/6/5 373/6/5 378/6/5
f 384/6/5 381/6/5 380/6/5
f 385/6/5 381/6/5 384/6/5
f 386/6/5 383/6/5 382/6/5
f 387/6/5 383/6/5 386/6/5
f 392/11/5 389/11/5 388/11/5
f 393/11/5 389/11/5 392/11/5
f 394/11/5 391/11/5 390/11/5
f 395/11/5 391/11/5 394/11/5
f 400/11/5 397/11/5 396/11/5
f 401/11/5 397/11/5 400/11/5
f 402/3/5 399/3/5 398/3/5
f 403/3/5 399/3/5 402/3/5
f 404/3/5 401/3/5 400/3/5
f 405/3/5 401/3/5 404/3/5
f 406/11/5 403/11/5 402/11/5
f 407/11/5 405/11/5 404/11/5
f 408/11/5 405/11/5 407/11/5
f 409/11/5 406/11/5 402/11/5
f 410/11/5 406/11/5 409/11/5
f 411/6/6 412/6/6 415/6/6
f 415/6/6 412/6/6 416/6/6
f 413/6/6 414/6/6 417/6/6
f 417/6/6 414/6/6 418/6/6
f 419/6/6 420/6/6 421/6/6
f 421/6/6 420/6/6 422/6/6
f 422/6/6 420/6/6 423/6/6
f 423/6/6 420/6/6 424/6/6
f 424/6/6 420/6/6 425/6/6
f 425/6/6 420/6/6 426/6/6
f 427/11/6 428/11/6 431/11/6
f 431/11/6 428/11/6 432/11/6
f 429/3/6 430/3/6 433/3/6
f 433/3/6 430/3/6 434/3/6
f 434/3/6 430/3/6 435/3/6
f 433/11/6 434/11/6 436/11/6
f 434/2/6 435/2/6 436/2/6
f 436/2/6 435/2/6 437/2/6
f 431/3/6 432/3/6 438/3/6
f 438/3/6 432/3/6 439/3/6
f 438/11/6 439/11/6 440/11/6
f 440/11/6 439/11/6 441/11/6
f 433/11/6 436/11/6 442/11/6
f 436/11/6 437/11/6 442/11/6
f 442/11/6 437/11/6 443/11/6
f 444/2/6 445/2/6 448/2/6
f 445/10/6 446/10/6 449/10/6
f 448/2/6 445/2/6 449/2/6
f 446/3/6 447/3/6 450/3/6
f 449/10/6 446/10/6 450/10/6
f 450/3/6 447/3/6 451/3/6
f 448/10/6 449/10/6 452/10/6
f 449/10/6 450/10/6 452/10/6
f 450/10/6 451/10/6 452/10/6
f 452/10/6 451/10/6 453/10/6
f 453/10/6 451/10/6 454/10/6
f 454/10/6 451/10/6 455/10/6
f 451/3/6 447/3/6 456/3/6
f 455/10/6 451/10/6 456/10/6
f 456/3/6 447/3/6 457/3/6
f 448/10/6 452/10/6 458/10/6
f 453/10/6 454/10/6 459/10/6
f 459/10/6 454/10/6 460/10/6
f 455/10/6 456/10/6 461/10/6
f 456/10/6 457/10/6 461/10/6
f 459/10/6 460/10/6 462/10/6
f 460/10/6 461/10/6 462/10/6
f 458/10/6 459/10/6 462/10/6
f 462/10/6 461/10/6 463/10/6
f 448/10/6 458/10/6 464/10/6
f 458/10/6 462/10/6 464/10/6
f 462/3/6 463/3/6 465/3/6
f 464/10/6 462/10/6 465/10/6
f 463/10/6 461/10/6 466/10/6
f 465/3/6 463/3/6 466/3/6
f 461/10/6 457/10/6 467/10/6
f 466/10/6 461/10/6 467/10/6
f 468/11/6 469/11/6 473/11/6
f 470/11/6 471/11/6 474/11/6
f 472/11/6 473/11/6 476/11/6
f 473/11/6 469/11/6 477/11/6
f 476/11/6 473/11/6 477/11/6
f 474/11/6 475/11/6 478/11/6
f 470/11/6 474/11/6 478/11/6
f 478/11/6 475/11/6 479/11/6
f 480/11/6 481/11/6 484/11/6
f 484/11/6 481/11/6 485/11/6
f 482/11/6 483/11/6 486/11/6
f 486/11/6 483/11/6 487/11/6
