# MagicaVoxel @ Ephtracy

# group
g elephant

# material
mtllib elephant.mtl
usemtl palette

# normals
vn -1 0 0
vn 1 0 0
vn 0 0 1
vn 0 0 -1
vn 0 -1 0
vn 0 1 0

# texcoords
vt 0.951172 0.5
vt 0.955078 0.5
vt 0.966797 0.5
vt 0.970703 0.5
vt 0.982422 0.5

# verts
v -8 8 4
v -8 8 2
v -8 15 4
v -8 15 2
v -6 0 3
v -6 0 -0
v -6 0 -5
v -6 0 -8
v -6 1 2
v -6 1 1
v -6 1 -6
v -6 1 -7
v -6 2 3
v -6 2 2
v -6 2 1
v -6 2 -0
v -6 2 -5
v -6 2 -6
v -6 2 -7
v -6 2 -8
v -6 5 4
v -6 5 3
v -6 8 4
v -6 8 2
v -6 12 2
v -6 12 -8
v -4 3 6
v -4 3 3
v -4 4 6
v -4 4 4
v -4 5 4
v -4 5 3
v -1 0 8
v -1 0 4
v -1 0 3
v -1 1 8
v -1 1 7
v -1 2 8
v -1 2 7
v -1 2 6
v -1 3 8
v -1 3 7
v -1 3 6
v -1 5 4
v -1 5 3
v -1 6 6
v -1 6 5
v -1 7 6
v -1 7 5
v -1 12 4
v -1 13 6
v -1 13 4
v 2 14 4
v 2 14 2
v 2 15 4
v 2 15 2
v 3 3 6
v 3 3 3
v 3 4 6
v 3 4 4
v 3 5 4
v 3 5 3
v -3 3 6
v -3 3 3
v -3 4 6
v -3 4 4
v -3 5 4
v -3 5 3
v -2 14 4
v -2 14 2
v -2 15 4
v -2 15 2
v 1 0 8
v 1 0 4
v 1 0 3
v 1 2 7
v 1 2 6
v 1 3 8
v 1 3 7
v 1 3 6
v 1 5 4
v 1 5 3
v 1 8 6
v 1 8 5
v 1 10 6
v 1 10 5
v 1 12 4
v 1 13 6
v 1 13 4
v 4 3 6
v 4 3 3
v 4 4 6
v 4 4 4
v 4 5 4
v 4 5 3
v 6 0 3
v 6 0 -0
v 6 0 -5
v 6 0 -8
v 6 1 2
v 6 1 1
v 6 1 -6
v 6 1 -7
v 6 2 3
v 6 2 2
v 6 2 1
v 6 2 -0
v 6 2 -5
v 6 2 -6
v 6 2 -7
v 6 2 -8
v 6 5 4
v 6 5 3
v 6 8 4
v 6 8 2
v 6 12 2
v 6 12 -8
v 8 8 4
v 8 8 2
v 8 15 4
v 8 15 2
v -1 0 8
v -1 1 8
v -1 2 8
v -1 3 8
v 0 1 8
v 0 2 8
v 1 0 8
v 1 3 8
v -4 3 6
v -4 4 6
v -3 3 6
v -3 4 6
v -1 3 6
v -1 6 6
v -1 7 6
v -1 13 6
v 0 6 6
v 0 7 6
v 0 8 6
v 0 10 6
v 1 3 6
v 1 8 6
v 1 10 6
v 1 13 6
v 3 3 6
v 3 4 6
v 4 3 6
v 4 4 6
v -8 8 4
v -8 15 4
v -7 10 4
v -7 13 4
v -6 5 4
v -6 8 4
v -6 10 4
v -5 10 4
v -5 12 4
v -5 13 4
v -4 4 4
v -4 5 4
v -4 9 4
v -4 11 4
v -3 4 4
v -3 5 4
v -3 9 4
v -3 10 4
v -2 9 4
v -2 10 4
v -2 11 4
v -2 14 4
v -2 15 4
v -1 5 4
v -1 12 4
v -1 13 4
v 1 5 4
v 1 12 4
v 1 13 4
v 2 9 4
v 2 10 4
v 2 11 4
v 2 14 4
v 2 15 4
v 3 4 4
v 3 5 4
v 3 9 4
v 3 10 4
v 4 4 4
v 4 5 4
v 4 9 4
v 4 11 4
v 5 10 4
v 5 12 4
v 5 13 4
v 6 5 4
v 6 8 4
v 6 10 4
v 7 10 4
v 7 13 4
v 8 8 4
v 8 15 4
v -6 0 3
v -6 2 3
v -6 5 3
v -5 1 3
v -5 2 3
v -4 1 3
v -4 2 3
v -4 3 3
v -4 5 3
v -3 0 3
v -3 2 3
v -3 3 3
v -3 5 3
v -1 0 3
v -1 5 3
v 1 0 3
v 1 5 3
v 3 0 3
v 3 2 3
v 3 3 3
v 3 5 3
v 4 1 3
v 4 2 3
v 4 3 3
v 4 5 3
v 5 1 3
v 5 2 3
v 6 0 3
v 6 2 3
v 6 5 3
v -8 8 2
v -8 15 2
v -6 8 2
v -6 12 2
v -2 14 2
v -2 15 2
v 2 14 2
v 2 15 2
v 6 8 2
v 6 12 2
v 8 8 2
v 8 15 2
v -6 0 -8
v -6 2 -8
v -6 12 -8
v -5 1 -8
v -5 2 -8
v -4 1 -8
v -4 2 -8
v -3 0 -8
v -3 2 -8
v 3 0 -8
v 3 2 -8
v 4 1 -8
v 4 2 -8
v 5 1 -8
v 5 2 -8
v 6 0 -8
v 6 2 -8
v 6 12 -8
v -1 0 8
v 1 0 8
v -1 0 4
v 1 0 4
v -6 0 3
v -3 0 3
v -1 0 3
v 1 0 3
v 3 0 3
v 6 0 3
v -6 0 -0
v -3 0 -0
v 3 0 -0
v 6 0 -0
v -6 0 -5
v -3 0 -5
v 3 0 -5
v 6 0 -5
v -6 0 -8
v -3 0 -8
v 3 0 -8
v 6 0 -8
v -4 3 6
v -3 3 6
v 3 3 6
v 4 3 6
v -4 3 3
v -3 3 3
v 3 3 3
v 4 3 3
v -6 5 4
v -4 5 4
v -3 5 4
v -1 5 4
v 1 5 4
v 3 5 4
v 4 5 4
v 6 5 4
v -6 5 3
v -4 5 3
v -3 5 3
v -1 5 3
v 1 5 3
v 3 5 3
v 4 5 3
v 6 5 3
v -8 8 4
v -6 8 4
v 6 8 4
v 8 8 4
v -8 8 2
v -6 8 2
v 6 8 2
v 8 8 2
v -1 3 8
v 1 3 8
v -1 3 7
v 1 3 7
v -1 3 6
v 1 3 6
v -4 4 6
v -3 4 6
v 3 4 6
v 4 4 6
v -4 4 4
v -3 4 4
v 3 4 4
v 4 4 4
v -6 12 2
v 6 12 2
v -6 12 -8
v 6 12 -8
v -1 13 6
v 1 13 6
v -1 13 4
v 1 13 4
v -2 14 4
v 2 14 4
v -2 14 2
v 2 14 2
v -8 15 4
v -2 15 4
v 2 15 4
v 8 15 4
v -8 15 2
v -2 15 2
v 2 15 2
v 8 15 2

# faces
f 3/5/1 2/5/1 1/5/1
f 4/5/1 2/5/1 3/5/1
f 9/2/1 6/2/1 5/2/1
f 10/2/1 6/2/1 9/2/1
f 11/2/1 8/2/1 7/2/1
f 12/2/1 8/2/1 11/2/1
f 13/2/1 9/2/1 5/2/1
f 14/1/1 10/1/1 9/1/1
f 14/2/1 9/2/1 13/2/1
f 15/2/1 6/2/1 10/2/1
f 15/1/1 10/1/1 14/1/1
f 16/1/1 7/1/1 6/1/1
f 16/2/1 6/2/1 15/2/1
f 17/2/1 11/2/1 7/2/1
f 17/1/1 7/1/1 16/1/1
f 18/1/1 12/1/1 11/1/1
f 18/2/1 11/2/1 17/2/1
f 19/2/1 8/2/1 12/2/1
f 19/1/1 12/1/1 18/1/1
f 20/2/1 8/2/1 19/2/1
f 22/1/1 14/1/1 13/1/1
f 22/1/1 15/1/1 14/1/1
f 22/1/1 20/1/1 19/1/1
f 22/1/1 19/1/1 18/1/1
f 22/1/1 17/1/1 16/1/1
f 22/1/1 16/1/1 15/1/1
f 22/1/1 18/1/1 17/1/1
f 23/1/1 22/1/1 21/1/1
f 24/1/1 20/1/1 22/1/1
f 24/1/1 22/1/1 23/1/1
f 25/1/1 20/1/1 24/1/1
f 26/1/1 20/1/1 25/1/1
f 29/4/1 28/4/1 27/4/1
f 30/4/1 28/4/1 29/4/1
f 31/4/1 28/4/1 30/4/1
f 32/4/1 28/4/1 31/4/1
f 36/5/1 34/5/1 33/5/1
f 37/5/1 34/5/1 36/5/1
f 38/1/1 37/1/1 36/1/1
f 39/5/1 34/5/1 37/5/1
f 39/1/1 37/1/1 38/1/1
f 40/5/1 34/5/1 39/5/1
f 41/5/1 39/5/1 38/5/1
f 42/2/1 40/2/1 39/2/1
f 42/5/1 39/5/1 41/5/1
f 43/5/1 34/5/1 40/5/1
f 43/2/1 40/2/1 42/2/1
f 44/1/1 35/1/1 34/1/1
f 44/5/1 34/5/1 43/5/1
f 45/1/1 35/1/1 44/1/1
f 46/5/1 44/5/1 43/5/1
f 47/5/1 44/5/1 46/5/1
f 48/1/1 47/1/1 46/1/1
f 49/5/1 44/5/1 47/5/1
f 49/1/1 47/1/1 48/1/1
f 50/5/1 49/5/1 48/5/1
f 50/5/1 44/5/1 49/5/1
f 51/5/1 50/5/1 48/5/1
f 52/5/1 50/5/1 51/5/1
f 55/5/1 54/5/1 53/5/1
f 56/5/1 54/5/1 55/5/1
f 59/4/1 58/4/1 57/4/1
f 60/4/1 58/4/1 59/4/1
f 61/4/1 58/4/1 60/4/1
f 62/4/1 58/4/1 61/4/1
f 63/4/2 64/4/2 65/4/2
f 65/4/2 64/4/2 66/4/2
f 66/4/2 64/4/2 67/4/2
f 67/4/2 64/4/2 68/4/2
f 69/5/2 70/5/2 71/5/2
f 71/5/2 70/5/2 72/5/2
f 73/5/2 74/5/2 76/5/2
f 76/5/2 74/5/2 77/5/2
f 73/5/2 76/5/2 78/5/2
f 76/2/2 77/2/2 79/2/2
f 78/5/2 76/5/2 79/5/2
f 77/5/2 74/5/2 80/5/2
f 79/2/2 77/2/2 80/2/2
f 74/1/2 75/1/2 81/1/2
f 80/5/2 74/5/2 81/5/2
f 81/1/2 75/1/2 82/1/2
f 80/5/2 81/5/2 83/5/2
f 83/5/2 81/5/2 84/5/2
f 83/1/2 84/1/2 85/1/2
f 84/5/2 81/5/2 86/5/2
f 85/1/2 84/1/2 86/1/2
f 85/5/2 86/5/2 87/5/2
f 86/5/2 81/5/2 87/5/2
f 85/5/2 87/5/2 88/5/2
f 88/5/2 87/5/2 89/5/2
f 90/4/2 91/4/2 92/4/2
f 92/4/2 91/4/2 93/4/2
f 93/4/2 91/4/2 94/4/2
f 94/4/2 91/4/2 95/4/2
f 96/2/2 97/2/2 100/2/2
f 100/2/2 97/2/2 101/2/2
f 98/2/2 99/2/2 102/2/2
f 102/2/2 99/2/2 103/2/2
f 96/2/2 100/2/2 104/2/2
f 100/1/2 101/1/2 105/1/2
f 104/2/2 100/2/2 105/2/2
f 101/2/2 97/2/2 106/2/2
f 105/1/2 101/1/2 106/1/2
f 97/1/2 98/1/2 107/1/2
f 106/2/2 97/2/2 107/2/2
f 98/2/2 102/2/2 108/2/2
f 107/1/2 98/1/2 108/1/2
f 102/1/2 103/1/2 109/1/2
f 108/2/2 102/2/2 109/2/2
f 103/2/2 99/2/2 110/2/2
f 109/1/2 103/1/2 110/1/2
f 110/2/2 99/2/2 111/2/2
f 104/1/2 105/1/2 113/1/2
f 105/1/2 106/1/2 113/1/2
f 110/1/2 111/1/2 113/1/2
f 109/1/2 110/1/2 113/1/2
f 107/1/2 108/1/2 113/1/2
f 106/1/2 107/1/2 113/1/2
f 108/1/2 109/1/2 113/1/2
f 112/1/2 113/1/2 114/1/2
f 113/1/2 111/1/2 115/1/2
f 114/1/2 113/1/2 115/1/2
f 115/1/2 111/1/2 116/1/2
f 116/1/2 111/1/2 117/1/2
f 118/5/2 119/5/2 120/5/2
f 120/5/2 119/5/2 121/5/2
f 126/5/3 123/5/3 122/5/3
f 126/1/3 124/1/3 123/1/3
f 127/5/3 125/5/3 124/5/3
f 127/1/3 124/1/3 126/1/3
f 128/5/3 126/5/3 122/5/3
f 128/5/3 127/5/3 126/5/3
f 129/5/3 125/5/3 127/5/3
f 129/5/3 127/5/3 128/5/3
f 132/4/3 131/4/3 130/4/3
f 133/4/3 131/4/3 132/4/3
f 138/5/3 135/5/3 134/5/3
f 138/1/3 136/1/3 135/1/3
f 139/5/3 137/5/3 136/5/3
f 139/1/3 136/1/3 138/1/3
f 140/5/3 137/5/3 139/5/3
f 141/5/3 137/5/3 140/5/3
f 142/5/3 138/5/3 134/5/3
f 142/5/3 139/5/3 138/5/3
f 142/5/3 140/5/3 139/5/3
f 143/1/3 141/1/3 140/1/3
f 143/5/3 140/5/3 142/5/3
f 144/5/3 137/5/3 141/5/3
f 144/1/3 141/1/3 143/1/3
f 145/5/3 137/5/3 144/5/3
f 148/4/3 147/4/3 146/4/3
f 149/4/3 147/4/3 148/4/3
f 152/5/3 151/5/3 150/5/3
f 153/5/3 151/5/3 152/5/3
f 155/5/3 152/5/3 150/5/3
f 156/2/3 153/2/3 152/2/3
f 156/5/3 152/5/3 155/5/3
f 157/1/3 155/1/3 154/1/3
f 157/2/3 153/2/3 156/2/3
f 157/1/3 156/1/3 155/1/3
f 158/2/3 153/2/3 157/2/3
f 159/5/3 151/5/3 153/5/3
f 159/2/3 153/2/3 158/2/3
f 161/1/3 158/1/3 157/1/3
f 161/1/3 157/1/3 154/1/3
f 162/1/3 158/1/3 161/1/3
f 163/1/3 158/1/3 162/1/3
f 164/4/3 161/4/3 160/4/3
f 165/1/3 162/1/3 161/1/3
f 165/4/3 161/4/3 164/4/3
f 166/4/3 163/4/3 162/4/3
f 166/1/3 162/1/3 165/1/3
f 167/4/3 163/4/3 166/4/3
f 168/1/3 166/1/3 165/1/3
f 168/3/3 167/3/3 166/3/3
f 169/4/3 163/4/3 167/4/3
f 169/3/3 167/3/3 168/3/3
f 170/1/3 158/1/3 163/1/3
f 170/4/3 163/4/3 169/4/3
f 171/5/3 151/5/3 159/5/3
f 171/5/3 159/5/3 158/5/3
f 172/5/3 151/5/3 171/5/3
f 173/1/3 170/1/3 169/1/3
f 173/1/3 169/1/3 168/1/3
f 173/1/3 168/1/3 165/1/3
f 174/1/3 158/1/3 170/1/3
f 174/1/3 170/1/3 173/1/3
f 174/5/3 171/5/3 158/5/3
f 175/5/3 171/5/3 174/5/3
f 178/5/3 171/5/3 175/5/3
f 179/1/3 177/1/3 176/1/3
f 180/1/3 177/1/3 179/1/3
f 181/1/3 177/1/3 180/1/3
f 182/5/3 178/5/3 177/5/3
f 182/5/3 171/5/3 178/5/3
f 185/1/3 179/1/3 176/1/3
f 186/3/3 180/3/3 179/3/3
f 186/1/3 179/1/3 185/1/3
f 187/4/3 181/4/3 180/4/3
f 187/3/3 180/3/3 186/3/3
f 188/4/3 185/4/3 184/4/3
f 189/1/3 186/1/3 185/1/3
f 189/4/3 185/4/3 188/4/3
f 190/4/3 187/4/3 186/4/3
f 190/1/3 186/1/3 189/1/3
f 191/1/3 177/1/3 181/1/3
f 191/4/3 187/4/3 190/4/3
f 191/4/3 181/4/3 187/4/3
f 192/1/3 190/1/3 189/1/3
f 192/1/3 191/1/3 190/1/3
f 193/1/3 177/1/3 191/1/3
f 193/1/3 191/1/3 192/1/3
f 193/5/3 183/5/3 182/5/3
f 193/5/3 182/5/3 177/5/3
f 194/5/3 183/5/3 193/5/3
f 195/1/3 192/1/3 189/1/3
f 196/1/3 192/1/3 195/1/3
f 197/2/3 193/2/3 192/2/3
f 197/1/3 192/1/3 196/1/3
f 197/2/3 194/2/3 193/2/3
f 198/2/3 194/2/3 197/2/3
f 198/5/3 197/5/3 196/5/3
f 199/5/3 183/5/3 194/5/3
f 199/2/3 194/2/3 198/2/3
f 200/5/3 198/5/3 196/5/3
f 200/5/3 199/5/3 198/5/3
f 201/5/3 183/5/3 199/5/3
f 201/5/3 199/5/3 200/5/3
f 205/2/3 203/2/3 202/2/3
f 206/1/3 204/1/3 203/1/3
f 206/2/3 203/2/3 205/2/3
f 207/2/3 205/2/3 202/2/3
f 207/1/3 206/1/3 205/1/3
f 208/1/3 204/1/3 206/1/3
f 208/1/3 206/1/3 207/1/3
f 209/1/3 204/1/3 208/1/3
f 210/1/3 204/1/3 209/1/3
f 211/2/3 207/2/3 202/2/3
f 211/2/3 208/2/3 207/2/3
f 212/1/3 209/1/3 208/1/3
f 212/2/3 208/2/3 211/2/3
f 213/1/3 209/1/3 212/1/3
f 215/1/3 212/1/3 211/1/3
f 215/1/3 214/1/3 213/1/3
f 215/1/3 213/1/3 212/1/3
f 216/1/3 214/1/3 215/1/3
f 219/1/3 218/1/3 217/1/3
f 220/1/3 218/1/3 219/1/3
f 221/1/3 218/1/3 220/1/3
f 222/1/3 218/1/3 221/1/3
f 223/2/3 220/2/3 219/2/3
f 224/1/3 221/1/3 220/1/3
f 224/2/3 220/2/3 223/2/3
f 225/1/3 221/1/3 224/1/3
f 227/2/3 223/2/3 219/2/3
f 227/1/3 226/1/3 225/1/3
f 227/1/3 225/1/3 224/1/3
f 227/1/3 224/1/3 223/1/3
f 228/1/3 226/1/3 227/1/3
f 229/2/3 227/2/3 219/2/3
f 229/2/3 228/2/3 227/2/3
f 230/1/3 226/1/3 228/1/3
f 230/2/3 228/2/3 229/2/3
f 231/1/3 226/1/3 230/1/3
f 232/5/4 233/5/4 234/5/4
f 234/5/4 233/5/4 235/5/4
f 235/5/4 233/5/4 236/5/4
f 236/5/4 233/5/4 237/5/4
f 235/5/4 236/5/4 238/5/4
f 235/5/4 238/5/4 241/5/4
f 238/5/4 239/5/4 241/5/4
f 240/5/4 241/5/4 242/5/4
f 241/5/4 239/5/4 243/5/4
f 242/5/4 241/5/4 243/5/4
f 244/2/4 245/2/4 247/2/4
f 245/1/4 246/1/4 248/1/4
f 247/2/4 245/2/4 248/2/4
f 244/2/4 247/2/4 249/2/4
f 247/1/4 248/1/4 249/1/4
f 248/1/4 246/1/4 250/1/4
f 249/1/4 248/1/4 250/1/4
f 244/2/4 249/2/4 251/2/4
f 249/2/4 250/2/4 251/2/4
f 250/1/4 246/1/4 252/1/4
f 251/2/4 250/2/4 252/2/4
f 251/1/4 252/1/4 253/1/4
f 252/1/4 246/1/4 254/1/4
f 253/1/4 252/1/4 254/1/4
f 253/2/4 254/2/4 255/2/4
f 254/1/4 246/1/4 256/1/4
f 255/2/4 254/2/4 256/2/4
f 253/2/4 255/2/4 257/2/4
f 255/1/4 256/1/4 257/1/4
f 256/1/4 246/1/4 258/1/4
f 257/1/4 256/1/4 258/1/4
f 253/2/4 257/2/4 259/2/4
f 257/2/4 258/2/4 259/2/4
f 258/1/4 246/1/4 260/1/4
f 259/2/4 258/2/4 260/2/4
f 260/1/4 246/1/4 261/1/4
f 264/5/5 263/5/5 262/5/5
f 265/5/5 263/5/5 264/5/5
f 268/1/5 265/1/5 264/1/5
f 269/1/5 265/1/5 268/1/5
f 272/2/5 267/2/5 266/2/5
f 273/1/5 269/1/5 268/1/5
f 273/2/5 267/2/5 272/2/5
f 273/1/5 268/1/5 267/1/5
f 273/1/5 270/1/5 269/1/5
f 274/2/5 271/2/5 270/2/5
f 274/1/5 270/1/5 273/1/5
f 275/2/5 271/2/5 274/2/5
f 276/1/5 273/1/5 272/1/5
f 276/1/5 274/1/5 273/1/5
f 276/1/5 275/1/5 274/1/5
f 277/1/5 275/1/5 276/1/5
f 278/1/5 275/1/5 277/1/5
f 279/1/5 275/1/5 278/1/5
f 280/2/5 277/2/5 276/2/5
f 281/1/5 278/1/5 277/1/5
f 281/2/5 277/2/5 280/2/5
f 282/2/5 279/2/5 278/2/5
f 282/1/5 278/1/5 281/1/5
f 283/2/5 279/2/5 282/2/5
f 288/4/5 285/4/5 284/4/5
f 289/4/5 285/4/5 288/4/5
f 290/4/5 287/4/5 286/4/5
f 291/4/5 287/4/5 290/4/5
f 300/1/5 293/1/5 292/1/5
f 301/1/5 293/1/5 300/1/5
f 302/1/5 295/1/5 294/1/5
f 303/1/5 295/1/5 302/1/5
f 304/1/5 297/1/5 296/1/5
f 305/1/5 297/1/5 304/1/5
f 306/1/5 299/1/5 298/1/5
f 307/1/5 299/1/5 306/1/5
f 312/5/5 309/5/5 308/5/5
f 313/5/5 309/5/5 312/5/5
f 314/5/5 311/5/5 310/5/5
f 315/5/5 311/5/5 314/5/5
f 316/5/6 317/5/6 318/5/6
f 318/5/6 317/5/6 319/5/6
f 318/2/6 319/2/6 320/2/6
f 320/2/6 319/2/6 321/2/6
f 322/4/6 323/4/6 326/4/6
f 326/4/6 323/4/6 327/4/6
f 324/4/6 325/4/6 328/4/6
f 328/4/6 325/4/6 329/4/6
f 330/1/6 331/1/6 332/1/6
f 332/1/6 331/1/6 333/1/6
f 334/5/6 335/5/6 336/5/6
f 336/5/6 335/5/6 337/5/6
f 338/5/6 339/5/6 340/5/6
f 340/5/6 339/5/6 341/5/6
f 342/5/6 343/5/6 346/5/6
f 346/5/6 343/5/6 347/5/6
f 344/5/6 345/5/6 348/5/6
f 348/5/6 345/5/6 349/5/6
