# MagicaVoxel @ Ephtracy

# group
g sheep

# material
mtllib sheep.mtl
usemtl palette

# normals
vn -1 0 0
vn 1 0 0
vn 0 0 1
vn 0 0 -1
vn 0 -1 0
vn 0 1 0

# texcoords
vt 0.939453 0.5
vt 0.943359 0.5
vt 0.947266 0.5
vt 0.951172 0.5
vt 0.955078 0.5
vt 0.962891 0.5
vt 0.966797 0.5

# verts
v -8 7 4
v -8 7 2
v -8 10 4
v -8 10 2
v -6 0 6
v -6 0 3
v -6 0 -3
v -6 0 -6
v -6 1 5
v -6 1 4
v -6 1 -4
v -6 1 -5
v -6 2 6
v -6 2 5
v -6 2 4
v -6 2 3
v -6 2 -2
v -6 2 -3
v -6 2 -4
v -6 2 -5
v -6 2 -6
v -6 3 -2
v -6 3 -3
v -6 6 -3
v -6 6 -4
v -6 7 4
v -6 7 2
v -6 7 -2
v -6 7 -3
v -6 7 -4
v -6 8 -2
v -6 8 -3
v -6 10 4
v -6 10 2
v -6 12 6
v -6 12 -6
v -4 12 4
v -4 12 3
v -4 14 4
v -4 14 3
v -3 3 8
v -3 3 6
v -3 7 8
v -3 7 6
v -1 2 8
v -1 2 7
v -1 3 8
v -1 3 7
v -1 5 8
v -1 5 7
v -1 6 8
v -1 6 7
v -1 7 7
v -1 7 6
v -1 8 7
v -1 8 6
v 2 5 8
v 2 5 7
v 2 6 8
v 2 6 7
v 3 12 4
v 3 12 3
v 3 14 4
v 3 14 3
v -3 12 4
v -3 12 3
v -3 14 4
v -3 14 3
v -2 5 8
v -2 5 7
v -2 6 8
v -2 6 7
v 1 2 8
v 1 2 7
v 1 3 8
v 1 3 7
v 1 5 8
v 1 5 7
v 1 6 8
v 1 6 7
v 1 7 7
v 1 7 6
v 1 8 7
v 1 8 6
v 3 3 8
v 3 3 6
v 3 7 8
v 3 7 6
v 4 12 4
v 4 12 3
v 4 14 4
v 4 14 3
v 6 0 6
v 6 0 3
v 6 0 -3
v 6 0 -6
v 6 1 5
v 6 1 4
v 6 1 3
v 6 1 2
v 6 1 -4
v 6 1 -5
v 6 2 6
v 6 2 5
v 6 2 4
v 6 2 3
v 6 2 -3
v 6 2 -4
v 6 2 -5
v 6 2 -6
v 6 3 3
v 6 3 2
v 6 3 1
v 6 3 -0
v 6 3 -4
v 6 3 -5
v 6 4 1
v 6 4 -0
v 6 4 -1
v 6 5 -0
v 6 5 -1
v 6 7 4
v 6 7 2
v 6 7 -0
v 6 7 -1
v 6 7 -5
v 6 7 -6
v 6 8 -0
v 6 8 -1
v 6 8 -5
v 6 8 -6
v 6 10 4
v 6 10 2
v 6 11 -2
v 6 11 -3
v 6 12 6
v 6 12 -2
v 6 12 -3
v 6 12 -6
v 8 7 4
v 8 7 2
v 8 10 4
v 8 10 2
v -3 3 8
v -3 7 8
v -2 5 8
v -2 6 8
v -1 2 8
v -1 3 8
v -1 5 8
v -1 6 8
v 1 2 8
v 1 3 8
v 1 5 8
v 1 6 8
v 2 5 8
v 2 6 8
v 3 3 8
v 3 7 8
v -2 5 7
v -2 6 7
v -1 5 7
v -1 6 7
v -1 7 7
v -1 8 7
v 1 5 7
v 1 6 7
v 1 7 7
v 1 8 7
v 2 5 7
v 2 6 7
v -6 0 6
v -6 2 6
v -6 12 6
v -5 1 6
v -5 2 6
v -4 1 6
v -4 2 6
v -3 0 6
v -3 2 6
v -3 3 6
v -3 7 6
v -3 8 6
v -3 10 6
v -3 12 6
v -2 9 6
v -2 10 6
v -1 7 6
v -1 8 6
v -1 9 6
v -1 10 6
v 1 7 6
v 1 8 6
v 1 9 6
v 1 10 6
v 2 9 6
v 2 10 6
v 3 0 6
v 3 2 6
v 3 3 6
v 3 7 6
v 3 8 6
v 3 10 6
v 3 12 6
v 4 1 6
v 4 2 6
v 5 1 6
v 5 2 6
v 6 0 6
v 6 2 6
v 6 12 6
v -8 7 4
v -8 10 4
v -6 7 4
v -6 10 4
v -4 12 4
v -4 14 4
v -3 12 4
v -3 14 4
v 3 12 4
v 3 14 4
v 4 12 4
v 4 14 4
v 6 7 4
v 6 10 4
v 8 7 4
v 8 10 4
v -1 2 7
v -1 3 7
v 1 2 7
v 1 3 7
v -4 12 3
v -4 14 3
v -3 12 3
v -3 14 3
v 3 12 3
v 3 14 3
v 4 12 3
v 4 14 3
v -8 7 2
v -8 10 2
v -6 7 2
v -6 10 2
v 6 7 2
v 6 10 2
v 8 7 2
v 8 10 2
v -6 0 -6
v -6 2 -6
v -6 12 -6
v -5 1 -6
v -5 2 -6
v -4 1 -6
v -4 2 -6
v -4 6 -6
v -4 7 -6
v -4 8 -6
v -4 9 -6
v -3 0 -6
v -3 2 -6
v -3 6 -6
v -3 7 -6
v -2 8 -6
v -2 9 -6
v -1 8 -6
v -1 9 -6
v 0 8 -6
v 0 9 -6
v 1 4 -6
v 1 5 -6
v 2 4 -6
v 2 5 -6
v 3 0 -6
v 3 2 -6
v 3 3 -6
v 4 1 -6
v 4 2 -6
v 4 3 -6
v 5 1 -6
v 5 2 -6
v 5 7 -6
v 5 8 -6
v 6 0 -6
v 6 2 -6
v 6 7 -6
v 6 8 -6
v 6 12 -6
v -6 0 6
v -3 0 6
v 3 0 6
v 6 0 6
v -5 0 5
v -3 0 5
v -6 0 3
v -5 0 3
v 3 0 3
v 6 0 3
v -6 0 -3
v -3 0 -3
v 3 0 -3
v 6 0 -3
v -6 0 -6
v -3 0 -6
v 3 0 -6
v 6 0 -6
v -1 2 8
v 1 2 8
v -1 2 7
v 1 2 7
v -3 3 8
v -1 3 8
v 1 3 8
v 3 3 8
v -1 3 7
v 1 3 7
v -3 3 6
v 3 3 6
v -2 6 8
v -1 6 8
v 1 6 8
v 2 6 8
v -2 6 7
v -1 6 7
v 1 6 7
v 2 6 7
v -8 7 4
v -6 7 4
v 6 7 4
v 8 7 4
v -8 7 2
v -6 7 2
v 6 7 2
v 8 7 2
v -2 5 8
v -1 5 8
v 1 5 8
v 2 5 8
v -2 5 7
v -1 5 7
v 1 5 7
v 2 5 7
v -3 7 8
v 3 7 8
v -1 7 7
v 1 7 7
v -3 7 6
v -1 7 6
v 1 7 6
v 3 7 6
v -1 8 7
v 1 8 7
v -1 8 6
v 1 8 6
v -8 10 4
v -6 10 4
v 6 10 4
v 8 10 4
v -8 10 2
v -6 10 2
v 6 10 2
v 8 10 2
v -6 12 6
v -3 12 6
v 3 12 6
v 6 12 6
v -3 12 5
v 3 12 5
v -4 12 4
v -3 12 4
v 3 12 4
v 4 12 4
v -4 12 3
v -3 12 3
v 3 12 3
v 4 12 3
v -3 12 -0
v -2 12 -0
v 2 12 -0
v 3 12 -0
v -3 12 -1
v -2 12 -1
v -1 12 -1
v 2 12 -1
v 3 12 -1
v -2 12 -2
v -1 12 -2
v 5 12 -2
v 6 12 -2
v 5 12 -3
v 6 12 -3
v -6 12 -6
v 6 12 -6
v -4 14 4
v -3 14 4
v 3 14 4
v 4 14 4
v -4 14 3
v -3 14 3
v 3 14 3
v 4 14 3

# faces
f 3/5/1 2/5/1 1/5/1
f 4/5/1 2/5/1 3/5/1
f 9/6/1 6/6/1 5/6/1
f 10/6/1 6/6/1 9/6/1
f 11/6/1 8/6/1 7/6/1
f 12/6/1 8/6/1 11/6/1
f 13/6/1 9/6/1 5/6/1
f 14/2/1 10/2/1 9/2/1
f 14/6/1 9/6/1 13/6/1
f 15/6/1 6/6/1 10/6/1
f 15/2/1 10/2/1 14/2/1
f 16/2/1 7/2/1 6/2/1
f 16/6/1 6/6/1 15/6/1
f 17/2/1 7/2/1 16/2/1
f 18/6/1 11/6/1 7/6/1
f 18/2/1 7/2/1 17/2/1
f 19/2/1 12/2/1 11/2/1
f 19/6/1 11/6/1 18/6/1
f 20/6/1 8/6/1 12/6/1
f 20/2/1 12/2/1 19/2/1
f 21/6/1 8/6/1 20/6/1
f 22/2/1 14/2/1 13/2/1
f 22/2/1 15/2/1 14/2/1
f 22/2/1 17/2/1 16/2/1
f 22/4/1 18/4/1 17/4/1
f 22/2/1 16/2/1 15/2/1
f 23/2/1 21/2/1 20/2/1
f 23/4/1 18/4/1 22/4/1
f 23/2/1 19/2/1 18/2/1
f 23/2/1 20/2/1 19/2/1
f 24/2/1 23/2/1 22/2/1
f 24/2/1 21/2/1 23/2/1
f 25/2/1 21/2/1 24/2/1
f 26/2/1 22/2/1 13/2/1
f 26/2/1 24/2/1 22/2/1
f 27/2/1 24/2/1 26/2/1
f 28/2/1 24/2/1 27/2/1
f 29/4/1 25/4/1 24/4/1
f 29/2/1 24/2/1 28/2/1
f 30/2/1 21/2/1 25/2/1
f 30/4/1 25/4/1 29/4/1
f 31/3/1 29/3/1 28/3/1
f 31/2/1 28/2/1 27/2/1
f 32/2/1 30/2/1 29/2/1
f 32/3/1 29/3/1 31/3/1
f 33/2/1 26/2/1 13/2/1
f 34/2/1 31/2/1 27/2/1
f 34/2/1 32/2/1 31/2/1
f 35/2/1 33/2/1 13/2/1
f 35/2/1 34/2/1 33/2/1
f 36/2/1 21/2/1 30/2/1
f 36/2/1 34/2/1 35/2/1
f 36/2/1 32/2/1 34/2/1
f 36/2/1 30/2/1 32/2/1
f 39/1/1 38/1/1 37/1/1
f 40/1/1 38/1/1 39/1/1
f 43/5/1 42/5/1 41/5/1
f 44/5/1 42/5/1 43/5/1
f 47/1/1 46/1/1 45/1/1
f 48/1/1 46/1/1 47/1/1
f 51/5/1 50/5/1 49/5/1
f 52/5/1 50/5/1 51/5/1
f 55/5/1 54/5/1 53/5/1
f 56/5/1 54/5/1 55/5/1
f 59/5/1 58/5/1 57/5/1
f 60/5/1 58/5/1 59/5/1
f 63/1/1 62/1/1 61/1/1
f 64/1/1 62/1/1 63/1/1
f 65/1/2 66/1/2 67/1/2
f 67/1/2 66/1/2 68/1/2
f 69/5/2 70/5/2 71/5/2
f 71/5/2 70/5/2 72/5/2
f 73/1/2 74/1/2 75/1/2
f 75/1/2 74/1/2 76/1/2
f 77/5/2 78/5/2 79/5/2
f 79/5/2 78/5/2 80/5/2
f 81/5/2 82/5/2 83/5/2
f 83/5/2 82/5/2 84/5/2
f 85/5/2 86/5/2 87/5/2
f 87/5/2 86/5/2 88/5/2
f 89/1/2 90/1/2 91/1/2
f 91/1/2 90/1/2 92/1/2
f 93/6/2 94/6/2 97/6/2
f 97/6/2 94/6/2 98/6/2
f 94/2/2 95/2/2 99/2/2
f 98/6/2 94/6/2 99/6/2
f 99/2/2 95/2/2 100/2/2
f 95/6/2 96/6/2 101/6/2
f 101/6/2 96/6/2 102/6/2
f 93/6/2 97/6/2 103/6/2
f 97/2/2 98/2/2 104/2/2
f 103/6/2 97/6/2 104/6/2
f 98/6/2 99/6/2 105/6/2
f 104/2/2 98/2/2 105/2/2
f 99/3/2 100/3/2 106/3/2
f 105/6/2 99/6/2 106/6/2
f 100/2/2 95/2/2 107/2/2
f 95/6/2 101/6/2 107/6/2
f 101/2/2 102/2/2 108/2/2
f 107/6/2 101/6/2 108/6/2
f 102/6/2 96/6/2 109/6/2
f 108/2/2 102/2/2 109/2/2
f 109/6/2 96/6/2 110/6/2
f 106/3/2 100/3/2 111/3/2
f 103/2/2 104/2/2 111/2/2
f 104/2/2 105/2/2 111/2/2
f 105/2/2 106/2/2 111/2/2
f 107/2/2 108/2/2 112/2/2
f 111/3/2 100/3/2 112/3/2
f 100/2/2 107/2/2 112/2/2
f 112/2/2 108/2/2 113/2/2
f 113/2/2 108/2/2 114/2/2
f 108/4/2 109/4/2 115/4/2
f 114/2/2 108/2/2 115/2/2
f 109/2/2 110/2/2 116/2/2
f 115/4/2 109/4/2 116/4/2
f 113/3/2 114/3/2 117/3/2
f 111/2/2 112/2/2 117/2/2
f 112/2/2 113/2/2 117/2/2
f 114/2/2 115/2/2 118/2/2
f 117/3/2 114/3/2 118/3/2
f 115/2/2 116/2/2 118/2/2
f 118/2/2 116/2/2 119/2/2
f 117/2/2 118/2/2 120/2/2
f 118/3/2 119/3/2 120/3/2
f 119/2/2 116/2/2 121/2/2
f 120/3/2 119/3/2 121/3/2
f 103/2/2 111/2/2 122/2/2
f 111/2/2 117/2/2 122/2/2
f 120/2/2 121/2/2 122/2/2
f 117/2/2 120/2/2 122/2/2
f 122/2/2 121/2/2 123/2/2
f 123/2/2 121/2/2 124/2/2
f 121/2/2 116/2/2 125/2/2
f 124/2/2 121/2/2 125/2/2
f 116/2/2 110/2/2 126/2/2
f 125/2/2 116/2/2 126/2/2
f 126/2/2 110/2/2 127/2/2
f 123/2/2 124/2/2 128/2/2
f 124/4/2 125/4/2 128/4/2
f 125/2/2 126/2/2 129/2/2
f 128/4/2 125/4/2 129/4/2
f 126/3/2 127/3/2 130/3/2
f 129/2/2 126/2/2 130/2/2
f 130/3/2 127/3/2 131/3/2
f 103/2/2 122/2/2 132/2/2
f 128/2/2 129/2/2 133/2/2
f 123/2/2 128/2/2 133/2/2
f 130/2/2 131/2/2 133/2/2
f 129/2/2 130/2/2 133/2/2
f 133/2/2 131/2/2 134/2/2
f 132/2/2 133/2/2 134/2/2
f 134/2/2 131/2/2 135/2/2
f 103/2/2 132/2/2 136/2/2
f 132/2/2 134/2/2 136/2/2
f 134/4/2 135/4/2 137/4/2
f 136/2/2 134/2/2 137/2/2
f 135/2/2 131/2/2 138/2/2
f 137/4/2 135/4/2 138/4/2
f 138/2/2 131/2/2 139/2/2
f 140/5/2 141/5/2 142/5/2
f 142/5/2 141/5/2 143/5/2
f 146/5/3 145/5/3 144/5/3
f 147/5/3 145/5/3 146/5/3
f 149/5/3 146/5/3 144/5/3
f 150/5/3 146/5/3 149/5/3
f 151/5/3 145/5/3 147/5/3
f 152/1/3 149/1/3 148/1/3
f 153/5/3 150/5/3 149/5/3
f 153/1/3 149/1/3 152/1/3
f 153/5/3 151/5/3 150/5/3
f 154/5/3 151/5/3 153/5/3
f 155/5/3 145/5/3 151/5/3
f 155/5/3 151/5/3 154/5/3
f 156/5/3 154/5/3 153/5/3
f 157/5/3 145/5/3 155/5/3
f 158/5/3 156/5/3 153/5/3
f 158/5/3 157/5/3 156/5/3
f 159/5/3 145/5/3 157/5/3
f 159/5/3 157/5/3 158/5/3
f 162/5/3 161/5/3 160/5/3
f 163/5/3 161/5/3 162/5/3
f 168/5/3 165/5/3 164/5/3
f 169/5/3 165/5/3 168/5/3
f 170/5/3 167/5/3 166/5/3
f 171/5/3 167/5/3 170/5/3
f 175/6/3 173/6/3 172/6/3
f 176/2/3 174/2/3 173/2/3
f 176/6/3 173/6/3 175/6/3
f 177/6/3 175/6/3 172/6/3
f 177/2/3 176/2/3 175/2/3
f 178/2/3 174/2/3 176/2/3
f 178/2/3 176/2/3 177/2/3
f 179/6/3 177/6/3 172/6/3
f 179/6/3 178/6/3 177/6/3
f 180/2/3 174/2/3 178/2/3
f 180/6/3 178/6/3 179/6/3
f 181/2/3 174/2/3 180/2/3
f 182/2/3 174/2/3 181/2/3
f 183/2/3 174/2/3 182/2/3
f 184/2/3 174/2/3 183/2/3
f 185/2/3 174/2/3 184/2/3
f 186/1/3 184/1/3 183/1/3
f 187/3/3 185/3/3 184/3/3
f 187/1/3 184/1/3 186/1/3
f 188/3/3 183/3/3 182/3/3
f 189/1/3 186/1/3 183/1/3
f 189/3/3 183/3/3 188/3/3
f 190/7/3 187/7/3 186/7/3
f 190/1/3 186/1/3 189/1/3
f 191/3/3 185/3/3 187/3/3
f 191/7/3 187/7/3 190/7/3
f 193/3/3 190/3/3 189/3/3
f 193/3/3 191/3/3 190/3/3
f 194/3/3 191/3/3 193/3/3
f 195/3/3 185/3/3 191/3/3
f 195/3/3 191/3/3 194/3/3
f 196/1/3 194/1/3 193/1/3
f 196/7/3 195/7/3 194/7/3
f 197/3/3 185/3/3 195/3/3
f 197/7/3 195/7/3 196/7/3
f 198/2/3 180/2/3 179/2/3
f 198/2/3 181/2/3 180/2/3
f 199/2/3 181/2/3 198/2/3
f 200/2/3 181/2/3 199/2/3
f 201/3/3 193/3/3 192/3/3
f 202/1/3 197/1/3 196/1/3
f 202/1/3 196/1/3 193/1/3
f 202/3/3 193/3/3 201/3/3
f 203/3/3 185/3/3 197/3/3
f 203/1/3 197/1/3 202/1/3
f 204/3/3 185/3/3 203/3/3
f 205/6/3 199/6/3 198/6/3
f 206/2/3 202/2/3 201/2/3
f 206/6/3 199/6/3 205/6/3
f 206/2/3 201/2/3 200/2/3
f 206/2/3 204/2/3 203/2/3
f 206/2/3 203/2/3 202/2/3
f 206/2/3 200/2/3 199/2/3
f 207/6/3 205/6/3 198/6/3
f 207/2/3 206/2/3 205/2/3
f 208/2/3 204/2/3 206/2/3
f 208/2/3 206/2/3 207/2/3
f 209/6/3 207/6/3 198/6/3
f 209/6/3 208/6/3 207/6/3
f 210/2/3 204/2/3 208/2/3
f 210/6/3 208/6/3 209/6/3
f 211/2/3 204/2/3 210/2/3
f 214/5/3 213/5/3 212/5/3
f 215/5/3 213/5/3 214/5/3
f 218/1/3 217/1/3 216/1/3
f 219/1/3 217/1/3 218/1/3
f 222/1/3 221/1/3 220/1/3
f 223/1/3 221/1/3 222/1/3
f 226/5/3 225/5/3 224/5/3
f 227/5/3 225/5/3 226/5/3
f 228/1/4 229/1/4 230/1/4
f 230/1/4 229/1/4 231/1/4
f 232/1/4 233/1/4 234/1/4
f 234/1/4 233/1/4 235/1/4
f 236/1/4 237/1/4 238/1/4
f 238/1/4 237/1/4 239/1/4
f 240/5/4 241/5/4 242/5/4
f 242/5/4 241/5/4 243/5/4
f 244/5/4 245/5/4 246/5/4
f 246/5/4 245/5/4 247/5/4
f 248/6/4 249/6/4 251/6/4
f 249/2/4 250/2/4 252/2/4
f 251/6/4 249/6/4 252/6/4
f 248/6/4 251/6/4 253/6/4
f 251/2/4 252/2/4 253/2/4
f 252/2/4 250/2/4 254/2/4
f 253/2/4 252/2/4 254/2/4
f 254/2/4 250/2/4 255/2/4
f 255/2/4 250/2/4 256/2/4
f 256/2/4 250/2/4 257/2/4
f 257/2/4 250/2/4 258/2/4
f 248/6/4 253/6/4 259/6/4
f 253/6/4 254/6/4 259/6/4
f 254/2/4 255/2/4 260/2/4
f 259/6/4 254/6/4 260/6/4
f 255/3/4 256/3/4 261/3/4
f 260/2/4 255/2/4 261/2/4
f 256/2/4 257/2/4 262/2/4
f 261/3/4 256/3/4 262/3/4
f 257/3/4 258/3/4 263/3/4
f 262/2/4 257/2/4 263/2/4
f 261/2/4 262/2/4 263/2/4
f 260/2/4 261/2/4 263/2/4
f 259/2/4 260/2/4 263/2/4
f 258/2/4 250/2/4 264/2/4
f 263/3/4 258/3/4 264/3/4
f 259/2/4 263/2/4 265/2/4
f 263/2/4 264/2/4 265/2/4
f 264/2/4 250/2/4 266/2/4
f 265/2/4 264/2/4 266/2/4
f 259/2/4 265/2/4 267/2/4
f 265/4/4 266/4/4 267/4/4
f 266/2/4 250/2/4 268/2/4
f 267/4/4 266/4/4 268/4/4
f 259/2/4 267/2/4 269/2/4
f 267/2/4 268/2/4 269/2/4
f 269/2/4 268/2/4 270/2/4
f 259/2/4 269/2/4 271/2/4
f 269/4/4 270/4/4 271/4/4
f 270/2/4 268/2/4 272/2/4
f 271/4/4 270/4/4 272/4/4
f 259/2/4 271/2/4 273/2/4
f 271/2/4 272/2/4 273/2/4
f 273/2/4 272/2/4 274/2/4
f 274/2/4 272/2/4 275/2/4
f 273/6/4 274/6/4 276/6/4
f 274/3/4 275/3/4 277/3/4
f 276/6/4 274/6/4 277/6/4
f 275/2/4 272/2/4 278/2/4
f 277/3/4 275/3/4 278/3/4
f 276/2/4 277/2/4 279/2/4
f 273/6/4 276/6/4 279/6/4
f 277/2/4 278/2/4 279/2/4
f 279/2/4 278/2/4 280/2/4
f 272/2/4 268/2/4 281/2/4
f 280/2/4 278/2/4 281/2/4
f 278/2/4 272/2/4 281/2/4
f 281/2/4 268/2/4 282/2/4
f 279/6/4 280/6/4 283/6/4
f 273/6/4 279/6/4 283/6/4
f 280/2/4 281/2/4 284/2/4
f 283/6/4 280/6/4 284/6/4
f 281/3/4 282/3/4 285/3/4
f 284/2/4 281/2/4 285/2/4
f 282/2/4 268/2/4 286/2/4
f 285/3/4 282/3/4 286/3/4
f 268/2/4 250/2/4 287/2/4
f 286/2/4 268/2/4 287/2/4
f 292/6/5 289/6/5 288/6/5
f 293/2/5 290/2/5 289/2/5
f 293/6/5 289/6/5 292/6/5
f 294/6/5 292/6/5 288/6/5
f 295/2/5 293/2/5 292/2/5
f 295/6/5 292/6/5 294/6/5
f 296/6/5 291/6/5 290/6/5
f 296/2/5 293/2/5 295/2/5
f 296/2/5 290/2/5 293/2/5
f 297/6/5 291/6/5 296/6/5
f 298/2/5 295/2/5 294/2/5
f 298/2/5 296/2/5 295/2/5
f 298/2/5 297/2/5 296/2/5
f 299/2/5 297/2/5 298/2/5
f 300/2/5 297/2/5 299/2/5
f 301/2/5 297/2/5 300/2/5
f 302/6/5 299/6/5 298/6/5
f 303/2/5 300/2/5 299/2/5
f 303/6/5 299/6/5 302/6/5
f 304/6/5 301/6/5 300/6/5
f 304/2/5 300/2/5 303/2/5
f 305/6/5 301/6/5 304/6/5
f 308/1/5 307/1/5 306/1/5
f 309/1/5 307/1/5 308/1/5
f 314/5/5 311/5/5 310/5/5
f 315/5/5 313/5/5 312/5/5
f 316/5/5 314/5/5 310/5/5
f 316/5/5 315/5/5 314/5/5
f 317/5/5 313/5/5 315/5/5
f 317/5/5 315/5/5 316/5/5
f 322/5/5 319/5/5 318/5/5
f 323/5/5 319/5/5 322/5/5
f 324/5/5 321/5/5 320/5/5
f 325/5/5 321/5/5 324/5/5
f 330/5/5 327/5/5 326/5/5
f 331/5/5 327/5/5 330/5/5
f 332/5/5 329/5/5 328/5/5
f 333/5/5 329/5/5 332/5/5
f 334/5/6 335/5/6 338/5/6
f 338/5/6 335/5/6 339/5/6
f 336/5/6 337/5/6 340/5/6
f 340/5/6 337/5/6 341/5/6
f 342/5/6 343/5/6 344/5/6
f 344/5/6 343/5/6 345/5/6
f 342/5/6 344/5/6 346/5/6
f 346/5/6 344/5/6 347/5/6
f 345/5/6 343/5/6 348/5/6
f 348/5/6 343/5/6 349/5/6
f 350/5/6 351/5/6 352/5/6
f 352/5/6 351/5/6 353/5/6
f 354/5/6 355/5/6 358/5/6
f 358/5/6 355/5/6 359/5/6
f 356/5/6 357/5/6 360/5/6
f 360/5/6 357/5/6 361/5/6
f 362/2/6 363/2/6 366/2/6
f 363/3/6 364/3/6 366/3/6
f 364/2/6 365/2/6 367/2/6
f 366/3/6 364/3/6 367/3/6
f 362/2/6 366/2/6 368/2/6
f 366/2/6 367/2/6 368/2/6
f 368/2/6 367/2/6 369/2/6
f 367/2/6 365/2/6 370/2/6
f 369/2/6 367/2/6 370/2/6
f 370/2/6 365/2/6 371/2/6
f 362/2/6 368/2/6 372/2/6
f 369/2/6 370/2/6 373/2/6
f 373/2/6 370/2/6 374/2/6
f 371/2/6 365/2/6 375/2/6
f 373/2/6 374/2/6 376/2/6
f 374/2/6 375/2/6 376/2/6
f 372/2/6 373/2/6 376/2/6
f 376/2/6 375/2/6 377/2/6
f 377/2/6 375/2/6 378/2/6
f 378/2/6 375/2/6 379/2/6
f 372/2/6 376/2/6 380/2/6
f 376/3/6 377/3/6 380/3/6
f 377/2/6 378/2/6 381/2/6
f 380/3/6 377/3/6 381/3/6
f 381/2/6 378/2/6 382/2/6
f 378/3/6 379/3/6 383/3/6
f 382/2/6 378/2/6 383/2/6
f 379/2/6 375/2/6 384/2/6
f 383/3/6 379/3/6 384/3/6
f 381/4/6 382/4/6 385/4/6
f 380/2/6 381/2/6 385/2/6
f 382/2/6 383/2/6 386/2/6
f 385/4/6 382/4/6 386/4/6
f 383/2/6 384/2/6 386/2/6
f 375/2/6 365/2/6 387/2/6
f 386/2/6 384/2/6 387/2/6
f 384/2/6 375/2/6 387/2/6
f 387/2/6 365/2/6 388/2/6
f 385/2/6 386/2/6 389/2/6
f 386/2/6 387/2/6 389/2/6
f 387/4/6 388/4/6 389/4/6
f 389/4/6 388/4/6 390/4/6
f 362/2/6 372/2/6 391/2/6
f 380/2/6 385/2/6 391/2/6
f 389/2/6 390/2/6 391/2/6
f 385/2/6 389/2/6 391/2/6
f 372/2/6 380/2/6 391/2/6
f 391/2/6 390/2/6 392/2/6
f 393/1/6 394/1/6 397/1/6
f 397/1/6 394/1/6 398/1/6
f 395/1/6 396/1/6 399/1/6
f 399/1/6 396/1/6 400/1/6
